<?xml version="1.0" encoding="UTF-8"?><svg id="Layer_2" xmlns="http://www.w3.org/2000/svg" xmlns:xlink="http://www.w3.org/1999/xlink" viewBox="0 0 1953.18 998.51"><defs><style>.cls-1{fill:none;}.cls-2{fill:#2b3c79;}.cls-3{clip-path:url(#clippath);}</style><clipPath id="clippath"><rect class="cls-1" y="0" width="1775.12" height="998.51"/></clipPath></defs><g id="Layer_1-2"><g class="cls-3"><path id="Path_284" class="cls-2" d="M1603.9,5.52h0c-8.39,0-15.2,6.8-15.2,15.2,0,8.39,6.8,15.2,15.2,15.2,8.39,0,15.2-6.8,15.2-15.2,0-8.39-6.8-15.2-15.2-15.2"/><path id="Path_284-2" class="cls-2" d="M1603.9,69.23h0c-8.39,0-15.2,6.8-15.2,15.2,0,8.39,6.8,15.2,15.2,15.2,8.39,0,15.2-6.8,15.2-15.2,0-8.39-6.8-15.2-15.2-15.2"/><path id="Path_284-3" class="cls-2" d="M1603.9,132.95h0c-8.39,0-15.2,6.8-15.2,15.2,0,8.39,6.8,15.2,15.2,15.2,8.39,0,15.2-6.8,15.2-15.2,0-8.39-6.8-15.2-15.2-15.2"/><path id="Path_284-4" class="cls-2" d="M1603.9,196.67h0c-8.39,0-15.2,6.8-15.2,15.2,0,8.39,6.8,15.2,15.2,15.2,8.39,0,15.2-6.8,15.2-15.2,0-8.39-6.8-15.2-15.2-15.2"/><path id="Path_284-5" class="cls-2" d="M1603.9,260.38h0c-8.39,0-15.2,6.8-15.2,15.2,0,8.39,6.8,15.2,15.2,15.2,8.39,0,15.2-6.8,15.2-15.2,0-8.39-6.8-15.2-15.2-15.2"/><path id="Path_284-6" class="cls-2" d="M1603.9,324.1h0c-8.39,0-15.2,6.8-15.2,15.2,0,8.39,6.8,15.2,15.2,15.2,8.39,0,15.2-6.8,15.2-15.2,0-8.39-6.8-15.2-15.2-15.2"/><path id="Path_284-7" class="cls-2" d="M1603.9,387.82h0c-8.39,0-15.2,6.8-15.2,15.2,0,8.39,6.8,15.2,15.2,15.2,8.39,0,15.2-6.8,15.2-15.2,0-8.39-6.8-15.2-15.2-15.2"/><path id="Path_284-8" class="cls-2" d="M1603.9,451.53h0c-8.39,0-15.2,6.8-15.2,15.2,0,8.39,6.8,15.2,15.2,15.2,8.39,0,15.2-6.8,15.2-15.2,0-8.39-6.8-15.2-15.2-15.2"/><path id="Path_284-9" class="cls-2" d="M1603.9,515.25h0c-8.39,0-15.2,6.8-15.2,15.2,0,8.39,6.8,15.2,15.2,15.2,8.39,0,15.2-6.8,15.2-15.2,0-8.39-6.8-15.2-15.2-15.2"/><path id="Path_284-10" class="cls-2" d="M1603.9,578.96h0c-8.39,0-15.2,6.8-15.2,15.2,0,8.39,6.8,15.2,15.2,15.2,8.39,0,15.2-6.8,15.2-15.2,0-8.39-6.8-15.2-15.2-15.2"/><path id="Path_284-11" class="cls-2" d="M1603.9,642.68h0c-8.39,0-15.2,6.8-15.2,15.2,0,8.39,6.8,15.2,15.2,15.2,8.39,0,15.2-6.8,15.2-15.2,0-8.39-6.8-15.2-15.2-15.2"/><path id="Path_284-12" class="cls-2" d="M1603.9,706.4h0c-8.39,0-15.2,6.8-15.2,15.2,0,8.39,6.8,15.2,15.2,15.2,8.39,0,15.2-6.8,15.2-15.2,0-8.39-6.8-15.2-15.2-15.2"/><path id="Path_284-13" class="cls-2" d="M1603.9,770.11h0c-8.39,0-15.2,6.8-15.2,15.2,0,8.39,6.8,15.2,15.2,15.2,8.39,0,15.2-6.8,15.2-15.2,0-8.39-6.8-15.2-15.2-15.2"/><path id="Path_284-14" class="cls-2" d="M1603.9,833.83h0c-8.39,0-15.2,6.8-15.2,15.2,0,8.39,6.8,15.2,15.2,15.2,8.39,0,15.2-6.8,15.2-15.2,0-8.39-6.8-15.2-15.2-15.2"/><path id="Path_284-15" class="cls-2" d="M1603.9,897.55h0c-8.39,0-15.2,6.8-15.2,15.2,0,8.39,6.8,15.2,15.2,15.2,8.39,0,15.2-6.8,15.2-15.2,0-8.39-6.8-15.2-15.2-15.2"/><path id="Path_284-16" class="cls-2" d="M1603.9,961.26h0c-8.39,0-15.2,6.8-15.2,15.2,0,8.39,6.8,15.2,15.2,15.2,8.39,0,15.2-6.8,15.2-15.2,0-8.39-6.8-15.2-15.2-15.2"/><path id="Path_284-17" class="cls-2" d="M1664.82,5.52h0c-8.39,0-15.2,6.8-15.2,15.2s6.8,15.2,15.2,15.2c8.39,0,15.2-6.8,15.2-15.2,0-8.39-6.8-15.2-15.2-15.2"/><path id="Path_284-18" class="cls-2" d="M1664.82,69.23h0c-8.39,0-15.2,6.8-15.2,15.2s6.8,15.2,15.2,15.2c8.39,0,15.2-6.8,15.2-15.2,0-8.39-6.8-15.2-15.2-15.2"/><path id="Path_284-19" class="cls-2" d="M1664.82,132.95h0c-8.39,0-15.2,6.8-15.2,15.2s6.8,15.2,15.2,15.2c8.39,0,15.2-6.8,15.2-15.2,0-8.39-6.8-15.2-15.2-15.2"/><path id="Path_284-20" class="cls-2" d="M1664.82,196.67h0c-8.39,0-15.2,6.8-15.2,15.2s6.8,15.2,15.2,15.2c8.39,0,15.2-6.8,15.2-15.2,0-8.39-6.8-15.2-15.2-15.2"/><path id="Path_284-21" class="cls-2" d="M1664.82,260.38h0c-8.39,0-15.2,6.8-15.2,15.2s6.8,15.2,15.2,15.2c8.39,0,15.2-6.8,15.2-15.2,0-8.39-6.8-15.2-15.2-15.2"/><path id="Path_284-22" class="cls-2" d="M1664.82,324.1h0c-8.39,0-15.2,6.8-15.2,15.2s6.8,15.2,15.2,15.2c8.39,0,15.2-6.8,15.2-15.2,0-8.39-6.8-15.2-15.2-15.2"/><path id="Path_284-23" class="cls-2" d="M1664.82,387.82h0c-8.39,0-15.2,6.8-15.2,15.2s6.8,15.2,15.2,15.2c8.39,0,15.2-6.8,15.2-15.2,0-8.39-6.8-15.2-15.2-15.2"/><path id="Path_284-24" class="cls-2" d="M1664.82,451.53h0c-8.39,0-15.2,6.8-15.2,15.2s6.8,15.2,15.2,15.2c8.39,0,15.2-6.8,15.2-15.2,0-8.39-6.8-15.2-15.2-15.2"/><path id="Path_284-25" class="cls-2" d="M1664.82,515.25h0c-8.39,0-15.2,6.8-15.2,15.2s6.8,15.2,15.2,15.2c8.39,0,15.2-6.8,15.2-15.2,0-8.39-6.8-15.2-15.2-15.2"/><path id="Path_284-26" class="cls-2" d="M1664.82,578.96h0c-8.39,0-15.2,6.8-15.2,15.2s6.8,15.2,15.2,15.2c8.39,0,15.2-6.8,15.2-15.2,0-8.39-6.8-15.2-15.2-15.2"/><path id="Path_284-27" class="cls-2" d="M1664.82,642.68h0c-8.39,0-15.2,6.8-15.2,15.2s6.8,15.2,15.2,15.2c8.39,0,15.2-6.8,15.2-15.2,0-8.39-6.8-15.2-15.2-15.2"/><path id="Path_284-28" class="cls-2" d="M1664.82,706.4h0c-8.39,0-15.2,6.8-15.2,15.2s6.8,15.2,15.2,15.2c8.39,0,15.2-6.8,15.2-15.2,0-8.39-6.8-15.2-15.2-15.2"/><path id="Path_284-29" class="cls-2" d="M1664.82,770.11h0c-8.39,0-15.2,6.8-15.2,15.2s6.8,15.2,15.2,15.2c8.39,0,15.2-6.8,15.2-15.2,0-8.39-6.8-15.2-15.2-15.2"/><path id="Path_284-30" class="cls-2" d="M1664.82,833.83h0c-8.39,0-15.2,6.8-15.2,15.2s6.8,15.2,15.2,15.2c8.39,0,15.2-6.8,15.2-15.2,0-8.39-6.8-15.2-15.2-15.2"/><path id="Path_284-31" class="cls-2" d="M1664.82,897.55h0c-8.39,0-15.2,6.8-15.2,15.2s6.8,15.2,15.2,15.2c8.39,0,15.2-6.8,15.2-15.2,0-8.39-6.8-15.2-15.2-15.2"/><path id="Path_284-32" class="cls-2" d="M1664.82,961.26h0c-8.39,0-15.2,6.8-15.2,15.2s6.8,15.2,15.2,15.2c8.39,0,15.2-6.8,15.2-15.2,0-8.39-6.8-15.2-15.2-15.2"/><path id="Path_284-33" class="cls-2" d="M1729.05,1.72h0c-10.49,0-18.99,8.5-18.99,18.99,0,10.49,8.5,18.99,18.99,18.99,10.49,0,18.99-8.5,18.99-18.99,0-10.49-8.5-18.99-18.99-18.99"/><path id="Path_284-34" class="cls-2" d="M1729.05,65.44h0c-10.49,0-18.99,8.5-18.99,18.99,0,10.49,8.5,18.99,18.99,18.99,10.49,0,18.99-8.5,18.99-18.99,0-10.49-8.5-18.99-18.99-18.99"/><path id="Path_284-35" class="cls-2" d="M1729.05,129.15h0c-10.49,0-18.99,8.5-18.99,18.99,0,10.49,8.5,18.99,18.99,18.99,10.49,0,18.99-8.5,18.99-18.99,0-10.49-8.5-18.99-18.99-18.99"/><path id="Path_284-36" class="cls-2" d="M1729.05,192.87h0c-10.49,0-18.99,8.5-18.99,18.99,0,10.49,8.5,18.99,18.99,18.99,10.49,0,18.99-8.5,18.99-18.99,0-10.49-8.5-18.99-18.99-18.99"/><path id="Path_284-37" class="cls-2" d="M1729.05,256.58h0c-10.49,0-18.99,8.5-18.99,18.99,0,10.49,8.5,18.99,18.99,18.99,10.49,0,18.99-8.5,18.99-18.99,0-10.49-8.5-18.99-18.99-18.99"/><path id="Path_284-38" class="cls-2" d="M1729.05,320.3h0c-10.49,0-18.99,8.5-18.99,18.99,0,10.49,8.5,18.99,18.99,18.99,10.49,0,18.99-8.5,18.99-18.99,0-10.49-8.5-18.99-18.99-18.99"/><path id="Path_284-39" class="cls-2" d="M1729.05,384.02h0c-10.49,0-18.99,8.5-18.99,18.99,0,10.49,8.5,18.99,18.99,18.99,10.49,0,18.99-8.5,18.99-18.99,0-10.49-8.5-18.99-18.99-18.99"/><path id="Path_284-40" class="cls-2" d="M1729.05,447.73h0c-10.49,0-18.99,8.5-18.99,18.99,0,10.49,8.5,18.99,18.99,18.99,10.49,0,18.99-8.5,18.99-18.99,0-10.49-8.5-18.99-18.99-18.99"/><path id="Path_284-41" class="cls-2" d="M1729.05,511.45h0c-10.49,0-18.99,8.5-18.99,18.99,0,10.49,8.5,18.99,18.99,18.99,10.49,0,18.99-8.5,18.99-18.99,0-10.49-8.5-18.99-18.99-18.99"/><path id="Path_284-42" class="cls-2" d="M1729.05,575.17h0c-10.49,0-18.99,8.5-18.99,18.99,0,10.49,8.5,18.99,18.99,18.99,10.49,0,18.99-8.5,18.99-18.99,0-10.49-8.5-18.99-18.99-18.99"/><path id="Path_284-43" class="cls-2" d="M1729.05,638.88h0c-10.49,0-18.99,8.5-18.99,18.99,0,10.49,8.5,18.99,18.99,18.99,10.49,0,18.99-8.5,18.99-18.99,0-10.49-8.5-18.99-18.99-18.99"/><path id="Path_284-44" class="cls-2" d="M1729.05,702.6h0c-10.49,0-18.99,8.5-18.99,18.99,0,10.49,8.5,18.99,18.99,18.99,10.49,0,18.99-8.5,18.99-18.99,0-10.49-8.5-18.99-18.99-18.99"/><path id="Path_284-45" class="cls-2" d="M1729.05,766.31h0c-10.49,0-18.99,8.5-18.99,18.99,0,10.49,8.5,18.99,18.99,18.99,10.49,0,18.99-8.5,18.99-18.99,0-10.49-8.5-18.99-18.99-18.99"/><path id="Path_284-46" class="cls-2" d="M1729.05,830.03h0c-10.49,0-18.99,8.5-18.99,18.99,0,10.49,8.5,18.99,18.99,18.99,10.49,0,18.99-8.5,18.99-18.99,0-10.49-8.5-18.99-18.99-18.99"/><path id="Path_284-47" class="cls-2" d="M1729.05,893.75h0c-10.49,0-18.99,8.5-18.99,18.99,0,10.49,8.5,18.99,18.99,18.99,10.49,0,18.99-8.5,18.99-18.99,0-10.49-8.5-18.99-18.99-18.99"/><path id="Path_284-48" class="cls-2" d="M1729.05,957.46h0c-10.49,0-18.99,8.5-18.99,18.99,0,10.49,8.5,18.99,18.99,18.99,10.49,0,18.99-8.5,18.99-18.99,0-10.49-8.5-18.99-18.99-18.99"/><path id="Path_284-49" class="cls-2" d="M1797.43,1.72h0c-10.49,0-18.99,8.5-18.99,18.99,0,10.49,8.5,18.99,18.99,18.99,10.49,0,18.99-8.5,18.99-18.99,0-10.49-8.5-18.99-18.99-18.99"/><path id="Path_284-50" class="cls-2" d="M1797.43,65.44h0c-10.49,0-18.99,8.5-18.99,18.99,0,10.49,8.5,18.99,18.99,18.99,10.49,0,18.99-8.5,18.99-18.99,0-10.49-8.5-18.99-18.99-18.99"/><path id="Path_284-51" class="cls-2" d="M1797.43,129.15h0c-10.49,0-18.99,8.5-18.99,18.99,0,10.49,8.5,18.99,18.99,18.99,10.49,0,18.99-8.5,18.99-18.99,0-10.49-8.5-18.99-18.99-18.99"/><path id="Path_284-52" class="cls-2" d="M1797.43,192.87h0c-10.49,0-18.99,8.5-18.99,18.99,0,10.49,8.5,18.99,18.99,18.99,10.49,0,18.99-8.5,18.99-18.99,0-10.49-8.5-18.99-18.99-18.99"/><path id="Path_284-53" class="cls-2" d="M1797.43,256.58h0c-10.49,0-18.99,8.5-18.99,18.99,0,10.49,8.5,18.99,18.99,18.99,10.49,0,18.99-8.5,18.99-18.99,0-10.49-8.5-18.99-18.99-18.99"/><path id="Path_284-54" class="cls-2" d="M1797.43,320.3h0c-10.49,0-18.99,8.5-18.99,18.99,0,10.49,8.5,18.99,18.99,18.99,10.49,0,18.99-8.5,18.99-18.99,0-10.49-8.5-18.99-18.99-18.99"/><path id="Path_284-55" class="cls-2" d="M1797.43,384.02h0c-10.49,0-18.99,8.5-18.99,18.99,0,10.49,8.5,18.99,18.99,18.99,10.49,0,18.99-8.5,18.99-18.99,0-10.49-8.5-18.99-18.99-18.99"/><path id="Path_284-56" class="cls-2" d="M1797.43,447.73h0c-10.49,0-18.99,8.5-18.99,18.99,0,10.49,8.5,18.99,18.99,18.99,10.49,0,18.99-8.5,18.99-18.99,0-10.49-8.5-18.99-18.99-18.99"/><path id="Path_284-57" class="cls-2" d="M1797.43,511.45h0c-10.49,0-18.99,8.5-18.99,18.99,0,10.49,8.5,18.99,18.99,18.99,10.49,0,18.99-8.5,18.99-18.99,0-10.49-8.5-18.99-18.99-18.99"/><path id="Path_284-58" class="cls-2" d="M1797.43,575.17h0c-10.49,0-18.99,8.5-18.99,18.99,0,10.49,8.5,18.99,18.99,18.99,10.49,0,18.99-8.5,18.99-18.99,0-10.49-8.5-18.99-18.99-18.99"/><path id="Path_284-59" class="cls-2" d="M1797.43,638.88h0c-10.49,0-18.99,8.5-18.99,18.99,0,10.49,8.5,18.99,18.99,18.99,10.49,0,18.99-8.5,18.99-18.99,0-10.49-8.5-18.99-18.99-18.99"/><path id="Path_284-60" class="cls-2" d="M1797.43,702.6h0c-10.49,0-18.99,8.5-18.99,18.99,0,10.49,8.5,18.99,18.99,18.99,10.49,0,18.99-8.5,18.99-18.99,0-10.49-8.5-18.99-18.99-18.99"/><path id="Path_284-61" class="cls-2" d="M1797.43,766.31h0c-10.49,0-18.99,8.5-18.99,18.99,0,10.49,8.5,18.99,18.99,18.99,10.49,0,18.99-8.5,18.99-18.99,0-10.49-8.5-18.99-18.99-18.99"/><path id="Path_284-62" class="cls-2" d="M1797.43,830.03h0c-10.49,0-18.99,8.5-18.99,18.99,0,10.49,8.5,18.99,18.99,18.99,10.49,0,18.99-8.5,18.99-18.99,0-10.49-8.5-18.99-18.99-18.99"/><path id="Path_284-63" class="cls-2" d="M1797.43,893.75h0c-10.49,0-18.99,8.5-18.99,18.99,0,10.49,8.5,18.99,18.99,18.99,10.49,0,18.99-8.5,18.99-18.99,0-10.49-8.5-18.99-18.99-18.99"/><path id="Path_284-64" class="cls-2" d="M1797.43,957.46h0c-10.49,0-18.99,8.5-18.99,18.99,0,10.49,8.5,18.99,18.99,18.99,10.49,0,18.99-8.5,18.99-18.99,0-10.49-8.5-18.99-18.99-18.99"/><path id="Path_284-65" class="cls-2" d="M1865.81,1.72h0c-10.49,0-18.99,8.5-18.99,18.99s8.5,18.99,18.99,18.99c10.49,0,18.99-8.5,18.99-18.99,0-10.49-8.5-18.99-18.99-18.99"/><path id="Path_284-66" class="cls-2" d="M1865.81,65.44h0c-10.49,0-18.99,8.5-18.99,18.99s8.5,18.99,18.99,18.99c10.49,0,18.99-8.5,18.99-18.99,0-10.49-8.5-18.99-18.99-18.99"/><path id="Path_284-67" class="cls-2" d="M1865.81,129.15h0c-10.49,0-18.99,8.5-18.99,18.99s8.5,18.99,18.99,18.99c10.49,0,18.99-8.5,18.99-18.99,0-10.49-8.5-18.99-18.99-18.99"/><path id="Path_284-68" class="cls-2" d="M1865.81,192.87h0c-10.49,0-18.99,8.5-18.99,18.99s8.5,18.99,18.99,18.99c10.49,0,18.99-8.5,18.99-18.99,0-10.49-8.5-18.99-18.99-18.99"/><path id="Path_284-69" class="cls-2" d="M1865.81,256.58h0c-10.49,0-18.99,8.5-18.99,18.99s8.5,18.99,18.99,18.99c10.49,0,18.99-8.5,18.99-18.99,0-10.49-8.5-18.99-18.99-18.99"/><path id="Path_284-70" class="cls-2" d="M1865.81,320.3h0c-10.49,0-18.99,8.5-18.99,18.99s8.5,18.99,18.99,18.99c10.49,0,18.99-8.5,18.99-18.99,0-10.49-8.5-18.99-18.99-18.99"/><path id="Path_284-71" class="cls-2" d="M1865.81,384.02h0c-10.49,0-18.99,8.5-18.99,18.99s8.5,18.99,18.99,18.99c10.49,0,18.99-8.5,18.99-18.99,0-10.49-8.5-18.99-18.99-18.99"/><path id="Path_284-72" class="cls-2" d="M1865.81,447.73h0c-10.49,0-18.99,8.5-18.99,18.99s8.5,18.99,18.99,18.99c10.49,0,18.99-8.5,18.99-18.99,0-10.49-8.5-18.99-18.99-18.99"/><path id="Path_284-73" class="cls-2" d="M1865.81,511.45h0c-10.49,0-18.99,8.5-18.99,18.99s8.5,18.99,18.99,18.99c10.49,0,18.99-8.5,18.99-18.99,0-10.49-8.5-18.99-18.99-18.99"/><path id="Path_284-74" class="cls-2" d="M1865.81,575.17h0c-10.49,0-18.99,8.5-18.99,18.99s8.5,18.99,18.99,18.99c10.49,0,18.99-8.5,18.99-18.99,0-10.49-8.5-18.99-18.99-18.99"/><path id="Path_284-75" class="cls-2" d="M1865.81,638.88h0c-10.49,0-18.99,8.5-18.99,18.99s8.5,18.99,18.99,18.99c10.49,0,18.99-8.5,18.99-18.99,0-10.49-8.5-18.99-18.99-18.99"/><path id="Path_284-76" class="cls-2" d="M1865.81,702.6h0c-10.49,0-18.99,8.5-18.99,18.99s8.5,18.99,18.99,18.99c10.49,0,18.99-8.5,18.99-18.99,0-10.49-8.5-18.99-18.99-18.99"/><path id="Path_284-77" class="cls-2" d="M1865.81,766.31h0c-10.49,0-18.99,8.5-18.99,18.99s8.5,18.99,18.99,18.99c10.49,0,18.99-8.5,18.99-18.99,0-10.49-8.5-18.99-18.99-18.99"/><path id="Path_284-78" class="cls-2" d="M1865.81,830.03h0c-10.49,0-18.99,8.5-18.99,18.99s8.5,18.99,18.99,18.99c10.49,0,18.99-8.5,18.99-18.99,0-10.49-8.5-18.99-18.99-18.99"/><path id="Path_284-79" class="cls-2" d="M1865.81,893.75h0c-10.49,0-18.99,8.5-18.99,18.99s8.5,18.99,18.99,18.99c10.49,0,18.99-8.5,18.99-18.99,0-10.49-8.5-18.99-18.99-18.99"/><path id="Path_284-80" class="cls-2" d="M1865.81,957.46h0c-10.49,0-18.99,8.5-18.99,18.99s8.5,18.99,18.99,18.99c10.49,0,18.99-8.5,18.99-18.99,0-10.49-8.5-18.99-18.99-18.99"/><path id="Path_284-81" class="cls-2" d="M1934.19,1.72h0c-10.49,0-18.99,8.5-18.99,18.99s8.5,18.99,18.99,18.99c10.49,0,18.99-8.5,18.99-18.99,0-10.49-8.5-18.99-18.99-18.99"/><path id="Path_284-82" class="cls-2" d="M1934.19,65.44h0c-10.49,0-18.99,8.5-18.99,18.99s8.5,18.99,18.99,18.99c10.49,0,18.99-8.5,18.99-18.99,0-10.49-8.5-18.99-18.99-18.99"/><path id="Path_284-83" class="cls-2" d="M1934.19,129.15h0c-10.49,0-18.99,8.5-18.99,18.99s8.5,18.99,18.99,18.99c10.49,0,18.99-8.5,18.99-18.99,0-10.49-8.5-18.99-18.99-18.99"/><path id="Path_284-84" class="cls-2" d="M1934.19,192.87h0c-10.49,0-18.99,8.5-18.99,18.99s8.5,18.99,18.99,18.99c10.49,0,18.99-8.5,18.99-18.99,0-10.49-8.5-18.99-18.99-18.99"/><path id="Path_284-85" class="cls-2" d="M1934.19,256.58h0c-10.49,0-18.99,8.5-18.99,18.99s8.5,18.99,18.99,18.99c10.49,0,18.99-8.5,18.99-18.99,0-10.49-8.5-18.99-18.99-18.99"/><path id="Path_284-86" class="cls-2" d="M1934.19,320.3h0c-10.49,0-18.99,8.5-18.99,18.99s8.5,18.99,18.99,18.99c10.49,0,18.99-8.5,18.99-18.99,0-10.49-8.5-18.99-18.99-18.99"/><path id="Path_284-87" class="cls-2" d="M1934.19,384.02h0c-10.49,0-18.99,8.5-18.99,18.99s8.5,18.99,18.99,18.99c10.49,0,18.99-8.5,18.99-18.99,0-10.49-8.5-18.99-18.99-18.99"/><path id="Path_284-88" class="cls-2" d="M1934.19,447.73h0c-10.49,0-18.99,8.5-18.99,18.99s8.5,18.99,18.99,18.99c10.49,0,18.99-8.5,18.99-18.99,0-10.49-8.5-18.99-18.99-18.99"/><path id="Path_284-89" class="cls-2" d="M1934.19,511.45h0c-10.49,0-18.99,8.5-18.99,18.99s8.5,18.99,18.99,18.99c10.49,0,18.99-8.5,18.99-18.99,0-10.49-8.5-18.99-18.99-18.99"/><path id="Path_284-90" class="cls-2" d="M1934.19,575.17h0c-10.49,0-18.99,8.5-18.99,18.99s8.5,18.99,18.99,18.99c10.49,0,18.99-8.5,18.99-18.99,0-10.49-8.5-18.99-18.99-18.99"/><path id="Path_284-91" class="cls-2" d="M1934.19,638.88h0c-10.49,0-18.99,8.5-18.99,18.99s8.5,18.99,18.99,18.99c10.49,0,18.99-8.5,18.99-18.99,0-10.49-8.5-18.99-18.99-18.99"/><path id="Path_284-92" class="cls-2" d="M1934.19,702.6h0c-10.49,0-18.99,8.5-18.99,18.99s8.5,18.99,18.99,18.99c10.49,0,18.99-8.5,18.99-18.99,0-10.49-8.5-18.99-18.99-18.99"/><path id="Path_284-93" class="cls-2" d="M1934.19,766.31h0c-10.49,0-18.99,8.5-18.99,18.99s8.5,18.99,18.99,18.99c10.49,0,18.99-8.5,18.99-18.99,0-10.49-8.5-18.99-18.99-18.99"/><path id="Path_284-94" class="cls-2" d="M1934.19,830.03h0c-10.49,0-18.99,8.5-18.99,18.99s8.5,18.99,18.99,18.99c10.49,0,18.99-8.5,18.99-18.99,0-10.49-8.5-18.99-18.99-18.99"/><path id="Path_284-95" class="cls-2" d="M1934.19,893.75h0c-10.49,0-18.99,8.5-18.99,18.99s8.5,18.99,18.99,18.99c10.49,0,18.99-8.5,18.99-18.99,0-10.49-8.5-18.99-18.99-18.99"/><path id="Path_284-96" class="cls-2" d="M1934.19,957.46h0c-10.49,0-18.99,8.5-18.99,18.99s8.5,18.99,18.99,18.99c10.49,0,18.99-8.5,18.99-18.99,0-10.49-8.5-18.99-18.99-18.99"/><path id="Path_284-97" class="cls-2" d="M1542.98,5.52h0c-8.39,0-15.2,6.8-15.2,15.2,0,8.39,6.8,15.2,15.2,15.2,8.39,0,15.2-6.8,15.2-15.2,0-8.39-6.8-15.2-15.2-15.2"/><path id="Path_284-98" class="cls-2" d="M1542.98,69.23h0c-8.39,0-15.2,6.8-15.2,15.2,0,8.39,6.8,15.2,15.2,15.2,8.39,0,15.2-6.8,15.2-15.2,0-8.39-6.8-15.2-15.2-15.2"/><path id="Path_284-99" class="cls-2" d="M1542.98,132.95h0c-8.39,0-15.2,6.8-15.2,15.2,0,8.39,6.8,15.2,15.2,15.2,8.39,0,15.2-6.8,15.2-15.2,0-8.39-6.8-15.2-15.2-15.2"/><path id="Path_284-100" class="cls-2" d="M1542.98,196.67h0c-8.39,0-15.2,6.8-15.2,15.2,0,8.39,6.8,15.2,15.2,15.2,8.39,0,15.2-6.8,15.2-15.2,0-8.39-6.8-15.2-15.2-15.2"/><path id="Path_284-101" class="cls-2" d="M1542.98,260.38h0c-8.39,0-15.2,6.8-15.2,15.2,0,8.39,6.8,15.2,15.2,15.2,8.39,0,15.2-6.8,15.2-15.2,0-8.39-6.8-15.2-15.2-15.2"/><path id="Path_284-102" class="cls-2" d="M1542.98,324.1h0c-8.39,0-15.2,6.8-15.2,15.2,0,8.39,6.8,15.2,15.2,15.2,8.39,0,15.2-6.8,15.2-15.2,0-8.39-6.8-15.2-15.2-15.2"/><path id="Path_284-103" class="cls-2" d="M1542.98,387.82h0c-8.39,0-15.2,6.8-15.2,15.2,0,8.39,6.8,15.2,15.2,15.2,8.39,0,15.2-6.8,15.2-15.2,0-8.39-6.8-15.2-15.2-15.2"/><path id="Path_284-104" class="cls-2" d="M1542.98,451.53h0c-8.39,0-15.2,6.8-15.2,15.2,0,8.39,6.8,15.2,15.2,15.2,8.39,0,15.2-6.8,15.2-15.2,0-8.39-6.8-15.2-15.2-15.2"/><path id="Path_284-105" class="cls-2" d="M1542.98,515.25h0c-8.39,0-15.2,6.8-15.2,15.2,0,8.39,6.8,15.2,15.2,15.2,8.39,0,15.2-6.8,15.2-15.2,0-8.39-6.8-15.2-15.2-15.2"/><path id="Path_284-106" class="cls-2" d="M1542.98,578.96h0c-8.39,0-15.2,6.8-15.2,15.2,0,8.39,6.8,15.2,15.2,15.2,8.39,0,15.2-6.8,15.2-15.2,0-8.39-6.8-15.2-15.2-15.2"/><path id="Path_284-107" class="cls-2" d="M1542.98,642.68h0c-8.39,0-15.2,6.8-15.2,15.2,0,8.39,6.8,15.2,15.2,15.2,8.39,0,15.2-6.8,15.2-15.2,0-8.39-6.8-15.2-15.2-15.2"/><path id="Path_284-108" class="cls-2" d="M1542.98,706.4h0c-8.39,0-15.2,6.8-15.2,15.2,0,8.39,6.8,15.2,15.2,15.2,8.39,0,15.2-6.8,15.2-15.2,0-8.39-6.8-15.2-15.2-15.2"/><path id="Path_284-109" class="cls-2" d="M1542.98,770.11h0c-8.39,0-15.2,6.8-15.2,15.2,0,8.39,6.8,15.2,15.2,15.2,8.39,0,15.2-6.8,15.2-15.2,0-8.39-6.8-15.2-15.2-15.2"/><path id="Path_284-110" class="cls-2" d="M1542.98,833.83h0c-8.39,0-15.2,6.8-15.2,15.2,0,8.39,6.8,15.2,15.2,15.2,8.39,0,15.2-6.8,15.2-15.2,0-8.39-6.8-15.2-15.2-15.2"/><path id="Path_284-111" class="cls-2" d="M1542.98,897.55h0c-8.39,0-15.2,6.8-15.2,15.2,0,8.39,6.8,15.2,15.2,15.2,8.39,0,15.2-6.8,15.2-15.2,0-8.39-6.8-15.2-15.2-15.2"/><path id="Path_284-112" class="cls-2" d="M1542.98,961.26h0c-8.39,0-15.2,6.8-15.2,15.2,0,8.39,6.8,15.2,15.2,15.2,8.39,0,15.2-6.8,15.2-15.2,0-8.39-6.8-15.2-15.2-15.2"/><path id="Path_284-113" class="cls-2" d="M1482.06,5.52h0c-8.39,0-15.2,6.8-15.2,15.2,0,8.39,6.8,15.2,15.2,15.2,8.39,0,15.2-6.8,15.2-15.2,0-8.39-6.8-15.2-15.2-15.2"/><path id="Path_284-114" class="cls-2" d="M1482.06,69.23h0c-8.39,0-15.2,6.8-15.2,15.2,0,8.39,6.8,15.2,15.2,15.2,8.39,0,15.2-6.8,15.2-15.2,0-8.39-6.8-15.2-15.2-15.2"/><path id="Path_284-115" class="cls-2" d="M1482.06,132.95h0c-8.39,0-15.2,6.8-15.2,15.2,0,8.39,6.8,15.2,15.2,15.2,8.39,0,15.2-6.8,15.2-15.2,0-8.39-6.8-15.2-15.2-15.2"/><path id="Path_284-116" class="cls-2" d="M1482.06,196.67h0c-8.39,0-15.2,6.8-15.2,15.2,0,8.39,6.8,15.2,15.2,15.2,8.39,0,15.2-6.8,15.2-15.2,0-8.39-6.8-15.2-15.2-15.2"/><path id="Path_284-117" class="cls-2" d="M1482.06,260.38h0c-8.39,0-15.2,6.8-15.2,15.2,0,8.39,6.8,15.2,15.2,15.2,8.39,0,15.2-6.8,15.2-15.2,0-8.39-6.8-15.2-15.2-15.2"/><path id="Path_284-118" class="cls-2" d="M1482.06,324.1h0c-8.39,0-15.2,6.8-15.2,15.2,0,8.39,6.8,15.2,15.2,15.2,8.39,0,15.2-6.8,15.2-15.2,0-8.39-6.8-15.2-15.2-15.2"/><path id="Path_284-119" class="cls-2" d="M1482.06,387.82h0c-8.39,0-15.2,6.8-15.2,15.2,0,8.39,6.8,15.2,15.2,15.2,8.39,0,15.2-6.8,15.2-15.2,0-8.39-6.8-15.2-15.2-15.2"/><path id="Path_284-120" class="cls-2" d="M1482.06,451.53h0c-8.39,0-15.2,6.8-15.2,15.2,0,8.39,6.8,15.2,15.2,15.2,8.39,0,15.2-6.8,15.2-15.2,0-8.39-6.8-15.2-15.2-15.2"/><path id="Path_284-121" class="cls-2" d="M1482.06,515.25h0c-8.39,0-15.2,6.8-15.2,15.2,0,8.39,6.8,15.2,15.2,15.2,8.39,0,15.2-6.8,15.2-15.2,0-8.39-6.8-15.2-15.2-15.2"/><path id="Path_284-122" class="cls-2" d="M1482.06,578.96h0c-8.39,0-15.2,6.8-15.2,15.2,0,8.39,6.8,15.2,15.2,15.2,8.39,0,15.2-6.8,15.2-15.2,0-8.39-6.8-15.2-15.2-15.2"/><path id="Path_284-123" class="cls-2" d="M1482.06,642.68h0c-8.39,0-15.2,6.8-15.2,15.2,0,8.39,6.8,15.2,15.2,15.2,8.39,0,15.2-6.8,15.2-15.2,0-8.39-6.8-15.2-15.2-15.2"/><path id="Path_284-124" class="cls-2" d="M1482.06,706.4h0c-8.39,0-15.2,6.8-15.2,15.2,0,8.39,6.8,15.2,15.2,15.2,8.39,0,15.2-6.8,15.2-15.2,0-8.39-6.8-15.2-15.2-15.2"/><path id="Path_284-125" class="cls-2" d="M1482.06,770.11h0c-8.39,0-15.2,6.8-15.2,15.2,0,8.39,6.8,15.2,15.2,15.2,8.39,0,15.2-6.8,15.2-15.2,0-8.39-6.8-15.2-15.2-15.2"/><path id="Path_284-126" class="cls-2" d="M1482.06,833.83h0c-8.39,0-15.2,6.8-15.2,15.2,0,8.39,6.8,15.2,15.2,15.2,8.39,0,15.2-6.8,15.2-15.2,0-8.39-6.8-15.2-15.2-15.2"/><path id="Path_284-127" class="cls-2" d="M1482.06,897.55h0c-8.39,0-15.2,6.8-15.2,15.2,0,8.39,6.8,15.2,15.2,15.2,8.39,0,15.2-6.8,15.2-15.2,0-8.39-6.8-15.2-15.2-15.2"/><path id="Path_284-128" class="cls-2" d="M1482.06,961.26h0c-8.39,0-15.2,6.8-15.2,15.2,0,8.39,6.8,15.2,15.2,15.2,8.39,0,15.2-6.8,15.2-15.2,0-8.39-6.8-15.2-15.2-15.2"/><path id="Path_284-129" class="cls-2" d="M1424.66,9.32h0c-6.29,0-11.4,5.1-11.4,11.4s5.1,11.4,11.4,11.4c6.29,0,11.4-5.1,11.4-11.4,0-6.29-5.1-11.4-11.4-11.4"/><path id="Path_284-130" class="cls-2" d="M1424.66,73.03h0c-6.29,0-11.4,5.1-11.4,11.4s5.1,11.4,11.4,11.4c6.29,0,11.4-5.1,11.4-11.4,0-6.29-5.1-11.4-11.4-11.4"/><path id="Path_284-131" class="cls-2" d="M1424.66,136.75h0c-6.29,0-11.4,5.1-11.4,11.4s5.1,11.4,11.4,11.4c6.29,0,11.4-5.1,11.4-11.4,0-6.29-5.1-11.4-11.4-11.4"/><path id="Path_284-132" class="cls-2" d="M1424.66,200.47h0c-6.29,0-11.4,5.1-11.4,11.4s5.1,11.4,11.4,11.4c6.29,0,11.4-5.1,11.4-11.4,0-6.29-5.1-11.4-11.4-11.4"/><path id="Path_284-133" class="cls-2" d="M1424.66,264.18h0c-6.29,0-11.4,5.1-11.4,11.4s5.1,11.4,11.4,11.4c6.29,0,11.4-5.1,11.4-11.4,0-6.29-5.1-11.4-11.4-11.4"/><path id="Path_284-134" class="cls-2" d="M1424.66,327.9h0c-6.29,0-11.4,5.1-11.4,11.4s5.1,11.4,11.4,11.4c6.29,0,11.4-5.1,11.4-11.4,0-6.29-5.1-11.4-11.4-11.4"/><path id="Path_284-135" class="cls-2" d="M1424.66,391.61h0c-6.29,0-11.4,5.1-11.4,11.4s5.1,11.4,11.4,11.4c6.29,0,11.4-5.1,11.4-11.4,0-6.29-5.1-11.4-11.4-11.4"/><path id="Path_284-136" class="cls-2" d="M1424.66,455.33h0c-6.29,0-11.4,5.1-11.4,11.4s5.1,11.4,11.4,11.4c6.29,0,11.4-5.1,11.4-11.4,0-6.29-5.1-11.4-11.4-11.4"/><path id="Path_284-137" class="cls-2" d="M1424.66,519.05h0c-6.29,0-11.4,5.1-11.4,11.4s5.1,11.4,11.4,11.4c6.29,0,11.4-5.1,11.4-11.4,0-6.29-5.1-11.4-11.4-11.4"/><path id="Path_284-138" class="cls-2" d="M1424.66,582.76h0c-6.29,0-11.4,5.1-11.4,11.4s5.1,11.4,11.4,11.4c6.29,0,11.4-5.1,11.4-11.4,0-6.29-5.1-11.4-11.4-11.4"/><path id="Path_284-139" class="cls-2" d="M1424.66,646.48h0c-6.29,0-11.4,5.1-11.4,11.4s5.1,11.4,11.4,11.4c6.29,0,11.4-5.1,11.4-11.4,0-6.29-5.1-11.4-11.4-11.4"/><path id="Path_284-140" class="cls-2" d="M1424.66,710.2h0c-6.29,0-11.4,5.1-11.4,11.4s5.1,11.4,11.4,11.4c6.29,0,11.4-5.1,11.4-11.4,0-6.29-5.1-11.4-11.4-11.4"/><path id="Path_284-141" class="cls-2" d="M1424.66,773.91h0c-6.29,0-11.4,5.1-11.4,11.4s5.1,11.4,11.4,11.4c6.29,0,11.4-5.1,11.4-11.4,0-6.29-5.1-11.4-11.4-11.4"/><path id="Path_284-142" class="cls-2" d="M1424.66,837.63h0c-6.29,0-11.4,5.1-11.4,11.4s5.1,11.4,11.4,11.4c6.29,0,11.4-5.1,11.4-11.4,0-6.29-5.1-11.4-11.4-11.4"/><path id="Path_284-143" class="cls-2" d="M1424.66,901.34h0c-6.29,0-11.4,5.1-11.4,11.4s5.1,11.4,11.4,11.4c6.29,0,11.4-5.1,11.4-11.4,0-6.29-5.1-11.4-11.4-11.4"/><path id="Path_284-144" class="cls-2" d="M1424.66,965.06h0c-6.29,0-11.4,5.1-11.4,11.4s5.1,11.4,11.4,11.4c6.29,0,11.4-5.1,11.4-11.4,0-6.29-5.1-11.4-11.4-11.4"/><path id="Path_284-145" class="cls-2" d="M1362.92,9.32h0c-6.29,0-11.4,5.1-11.4,11.4,0,6.29,5.1,11.4,11.4,11.4,6.29,0,11.4-5.1,11.4-11.4,0-6.29-5.1-11.4-11.4-11.4"/><path id="Path_284-146" class="cls-2" d="M1362.92,73.03h0c-6.29,0-11.4,5.1-11.4,11.4,0,6.29,5.1,11.4,11.4,11.4,6.29,0,11.4-5.1,11.4-11.4,0-6.29-5.1-11.4-11.4-11.4"/><path id="Path_284-147" class="cls-2" d="M1362.92,136.75h0c-6.29,0-11.4,5.1-11.4,11.4,0,6.29,5.1,11.4,11.4,11.4,6.29,0,11.4-5.1,11.4-11.4,0-6.29-5.1-11.4-11.4-11.4"/><path id="Path_284-148" class="cls-2" d="M1362.92,200.47h0c-6.29,0-11.4,5.1-11.4,11.4,0,6.29,5.1,11.4,11.4,11.4,6.29,0,11.4-5.1,11.4-11.4,0-6.29-5.1-11.4-11.4-11.4"/><path id="Path_284-149" class="cls-2" d="M1362.92,264.18h0c-6.29,0-11.4,5.1-11.4,11.4,0,6.29,5.1,11.4,11.4,11.4,6.29,0,11.4-5.1,11.4-11.4,0-6.29-5.1-11.4-11.4-11.4"/><path id="Path_284-150" class="cls-2" d="M1362.92,327.9h0c-6.29,0-11.4,5.1-11.4,11.4,0,6.29,5.1,11.4,11.4,11.4,6.29,0,11.4-5.1,11.4-11.4,0-6.29-5.1-11.4-11.4-11.4"/><path id="Path_284-151" class="cls-2" d="M1362.92,391.61h0c-6.29,0-11.4,5.1-11.4,11.4,0,6.29,5.1,11.4,11.4,11.4,6.29,0,11.4-5.1,11.4-11.4,0-6.29-5.1-11.4-11.4-11.4"/><path id="Path_284-152" class="cls-2" d="M1362.92,455.33h0c-6.29,0-11.4,5.1-11.4,11.4,0,6.29,5.1,11.4,11.4,11.4,6.29,0,11.4-5.1,11.4-11.4,0-6.29-5.1-11.4-11.4-11.4"/><path id="Path_284-153" class="cls-2" d="M1362.92,519.05h0c-6.29,0-11.4,5.1-11.4,11.4,0,6.29,5.1,11.4,11.4,11.4,6.29,0,11.4-5.1,11.4-11.4,0-6.29-5.1-11.4-11.4-11.4"/><path id="Path_284-154" class="cls-2" d="M1362.92,582.76h0c-6.29,0-11.4,5.1-11.4,11.4,0,6.29,5.1,11.4,11.4,11.4,6.29,0,11.4-5.1,11.4-11.4,0-6.29-5.1-11.4-11.4-11.4"/><path id="Path_284-155" class="cls-2" d="M1362.92,646.48h0c-6.29,0-11.4,5.1-11.4,11.4,0,6.29,5.1,11.4,11.4,11.4,6.29,0,11.4-5.1,11.4-11.4,0-6.29-5.1-11.4-11.4-11.4"/><path id="Path_284-156" class="cls-2" d="M1362.92,710.2h0c-6.29,0-11.4,5.1-11.4,11.4,0,6.29,5.1,11.4,11.4,11.4,6.29,0,11.4-5.1,11.4-11.4,0-6.29-5.1-11.4-11.4-11.4"/><path id="Path_284-157" class="cls-2" d="M1362.92,773.91h0c-6.29,0-11.4,5.1-11.4,11.4,0,6.29,5.1,11.4,11.4,11.4,6.29,0,11.4-5.1,11.4-11.4,0-6.29-5.1-11.4-11.4-11.4"/><path id="Path_284-158" class="cls-2" d="M1362.92,837.63h0c-6.29,0-11.4,5.1-11.4,11.4,0,6.29,5.1,11.4,11.4,11.4,6.29,0,11.4-5.1,11.4-11.4,0-6.29-5.1-11.4-11.4-11.4"/><path id="Path_284-159" class="cls-2" d="M1362.92,901.34h0c-6.29,0-11.4,5.1-11.4,11.4,0,6.29,5.1,11.4,11.4,11.4,6.29,0,11.4-5.1,11.4-11.4,0-6.29-5.1-11.4-11.4-11.4"/><path id="Path_284-160" class="cls-2" d="M1362.92,965.06h0c-6.29,0-11.4,5.1-11.4,11.4,0,6.29,5.1,11.4,11.4,11.4,6.29,0,11.4-5.1,11.4-11.4,0-6.29-5.1-11.4-11.4-11.4"/><path id="Path_284-161" class="cls-2" d="M1301.17,9.32h0c-6.29,0-11.4,5.1-11.4,11.4s5.1,11.4,11.4,11.4c6.29,0,11.4-5.1,11.4-11.4,0-6.29-5.1-11.4-11.4-11.4"/><path id="Path_284-162" class="cls-2" d="M1301.17,73.03h0c-6.29,0-11.4,5.1-11.4,11.4s5.1,11.4,11.4,11.4c6.29,0,11.4-5.1,11.4-11.4,0-6.29-5.1-11.4-11.4-11.4"/><path id="Path_284-163" class="cls-2" d="M1301.17,136.75h0c-6.29,0-11.4,5.1-11.4,11.4s5.1,11.4,11.4,11.4c6.29,0,11.4-5.1,11.4-11.4,0-6.29-5.1-11.4-11.4-11.4"/><path id="Path_284-164" class="cls-2" d="M1301.17,200.47h0c-6.29,0-11.4,5.1-11.4,11.4s5.1,11.4,11.4,11.4c6.29,0,11.4-5.1,11.4-11.4,0-6.29-5.1-11.4-11.4-11.4"/><path id="Path_284-165" class="cls-2" d="M1301.17,264.18h0c-6.29,0-11.4,5.1-11.4,11.4s5.1,11.4,11.4,11.4c6.29,0,11.4-5.1,11.4-11.4,0-6.29-5.1-11.4-11.4-11.4"/><path id="Path_284-166" class="cls-2" d="M1301.17,327.9h0c-6.29,0-11.4,5.1-11.4,11.4s5.1,11.4,11.4,11.4c6.29,0,11.4-5.1,11.4-11.4,0-6.29-5.1-11.4-11.4-11.4"/><path id="Path_284-167" class="cls-2" d="M1301.17,391.61h0c-6.29,0-11.4,5.1-11.4,11.4s5.1,11.4,11.4,11.4c6.29,0,11.4-5.1,11.4-11.4,0-6.29-5.1-11.4-11.4-11.4"/><path id="Path_284-168" class="cls-2" d="M1301.17,455.33h0c-6.29,0-11.4,5.1-11.4,11.4s5.1,11.4,11.4,11.4c6.29,0,11.4-5.1,11.4-11.4,0-6.29-5.1-11.4-11.4-11.4"/><path id="Path_284-169" class="cls-2" d="M1301.17,519.05h0c-6.29,0-11.4,5.1-11.4,11.4s5.1,11.4,11.4,11.4c6.29,0,11.4-5.1,11.4-11.4,0-6.29-5.1-11.4-11.4-11.4"/><path id="Path_284-170" class="cls-2" d="M1301.17,582.76h0c-6.29,0-11.4,5.1-11.4,11.4s5.1,11.4,11.4,11.4c6.29,0,11.4-5.1,11.4-11.4,0-6.29-5.1-11.4-11.4-11.4"/><path id="Path_284-171" class="cls-2" d="M1301.17,646.48h0c-6.29,0-11.4,5.1-11.4,11.4s5.1,11.4,11.4,11.4c6.29,0,11.4-5.1,11.4-11.4,0-6.29-5.1-11.4-11.4-11.4"/><path id="Path_284-172" class="cls-2" d="M1301.17,710.2h0c-6.29,0-11.4,5.1-11.4,11.4s5.1,11.4,11.4,11.4c6.29,0,11.4-5.1,11.4-11.4,0-6.29-5.1-11.4-11.4-11.4"/><path id="Path_284-173" class="cls-2" d="M1301.17,773.91h0c-6.29,0-11.4,5.1-11.4,11.4s5.1,11.4,11.4,11.4c6.29,0,11.4-5.1,11.4-11.4,0-6.29-5.1-11.4-11.4-11.4"/><path id="Path_284-174" class="cls-2" d="M1301.17,837.63h0c-6.29,0-11.4,5.1-11.4,11.4s5.1,11.4,11.4,11.4c6.29,0,11.4-5.1,11.4-11.4,0-6.29-5.1-11.4-11.4-11.4"/><path id="Path_284-175" class="cls-2" d="M1301.17,901.34h0c-6.29,0-11.4,5.1-11.4,11.4s5.1,11.4,11.4,11.4c6.29,0,11.4-5.1,11.4-11.4,0-6.29-5.1-11.4-11.4-11.4"/><path id="Path_284-176" class="cls-2" d="M1301.17,965.06h0c-6.29,0-11.4,5.1-11.4,11.4s5.1,11.4,11.4,11.4c6.29,0,11.4-5.1,11.4-11.4,0-6.29-5.1-11.4-11.4-11.4"/><path id="Path_284-177" class="cls-2" d="M1239.42,9.32h0c-6.29,0-11.4,5.1-11.4,11.4,0,6.29,5.1,11.4,11.4,11.4,6.29,0,11.4-5.1,11.4-11.4,0-6.29-5.1-11.4-11.4-11.4"/><path id="Path_284-178" class="cls-2" d="M1239.42,73.03h0c-6.29,0-11.4,5.1-11.4,11.4,0,6.29,5.1,11.4,11.4,11.4,6.29,0,11.4-5.1,11.4-11.4,0-6.29-5.1-11.4-11.4-11.4"/><path id="Path_284-179" class="cls-2" d="M1239.42,136.75h0c-6.29,0-11.4,5.1-11.4,11.4,0,6.29,5.1,11.4,11.4,11.4,6.29,0,11.4-5.1,11.4-11.4,0-6.29-5.1-11.4-11.4-11.4"/><path id="Path_284-180" class="cls-2" d="M1239.42,200.47h0c-6.29,0-11.4,5.1-11.4,11.4,0,6.29,5.1,11.4,11.4,11.4,6.29,0,11.4-5.1,11.4-11.4,0-6.29-5.1-11.4-11.4-11.4"/><path id="Path_284-181" class="cls-2" d="M1239.42,264.18h0c-6.29,0-11.4,5.1-11.4,11.4,0,6.29,5.1,11.4,11.4,11.4,6.29,0,11.4-5.1,11.4-11.4,0-6.29-5.1-11.4-11.4-11.4"/><path id="Path_284-182" class="cls-2" d="M1239.42,327.9h0c-6.29,0-11.4,5.1-11.4,11.4,0,6.29,5.1,11.4,11.4,11.4,6.29,0,11.4-5.1,11.4-11.4,0-6.29-5.1-11.4-11.4-11.4"/><path id="Path_284-183" class="cls-2" d="M1239.42,391.61h0c-6.29,0-11.4,5.1-11.4,11.4,0,6.29,5.1,11.4,11.4,11.4,6.29,0,11.4-5.1,11.4-11.4,0-6.29-5.1-11.4-11.4-11.4"/><path id="Path_284-184" class="cls-2" d="M1239.42,455.33h0c-6.29,0-11.4,5.1-11.4,11.4,0,6.29,5.1,11.4,11.4,11.4,6.29,0,11.4-5.1,11.4-11.4,0-6.29-5.1-11.4-11.4-11.4"/><path id="Path_284-185" class="cls-2" d="M1239.42,519.05h0c-6.29,0-11.4,5.1-11.4,11.4,0,6.29,5.1,11.4,11.4,11.4,6.29,0,11.4-5.1,11.4-11.4,0-6.29-5.1-11.4-11.4-11.4"/><path id="Path_284-186" class="cls-2" d="M1239.42,582.76h0c-6.29,0-11.4,5.1-11.4,11.4,0,6.29,5.1,11.4,11.4,11.4,6.29,0,11.4-5.1,11.4-11.4,0-6.29-5.1-11.4-11.4-11.4"/><path id="Path_284-187" class="cls-2" d="M1239.42,646.48h0c-6.29,0-11.4,5.1-11.4,11.4,0,6.29,5.1,11.4,11.4,11.4,6.29,0,11.4-5.1,11.4-11.4,0-6.29-5.1-11.4-11.4-11.4"/><path id="Path_284-188" class="cls-2" d="M1239.42,710.2h0c-6.29,0-11.4,5.1-11.4,11.4,0,6.29,5.1,11.4,11.4,11.4,6.29,0,11.4-5.1,11.4-11.4,0-6.29-5.1-11.4-11.4-11.4"/><path id="Path_284-189" class="cls-2" d="M1239.42,773.91h0c-6.29,0-11.4,5.1-11.4,11.4,0,6.29,5.1,11.4,11.4,11.4,6.29,0,11.4-5.1,11.4-11.4,0-6.29-5.1-11.4-11.4-11.4"/><path id="Path_284-190" class="cls-2" d="M1239.42,837.63h0c-6.29,0-11.4,5.1-11.4,11.4,0,6.29,5.1,11.4,11.4,11.4,6.29,0,11.4-5.1,11.4-11.4,0-6.29-5.1-11.4-11.4-11.4"/><path id="Path_284-191" class="cls-2" d="M1239.42,901.34h0c-6.29,0-11.4,5.1-11.4,11.4,0,6.29,5.1,11.4,11.4,11.4,6.29,0,11.4-5.1,11.4-11.4,0-6.29-5.1-11.4-11.4-11.4"/><path id="Path_284-192" class="cls-2" d="M1239.42,965.06h0c-6.29,0-11.4,5.1-11.4,11.4,0,6.29,5.1,11.4,11.4,11.4,6.29,0,11.4-5.1,11.4-11.4,0-6.29-5.1-11.4-11.4-11.4"/><path id="Path_284-193" class="cls-2" d="M1181.19,13.12h0c-4.2,0-7.6,3.4-7.6,7.6,0,4.2,3.4,7.6,7.6,7.6,4.2,0,7.6-3.4,7.6-7.6,0-4.2-3.4-7.6-7.6-7.6"/><path id="Path_284-194" class="cls-2" d="M1181.19,76.83h0c-4.2,0-7.6,3.4-7.6,7.6,0,4.2,3.4,7.6,7.6,7.6,4.2,0,7.6-3.4,7.6-7.6,0-4.2-3.4-7.6-7.6-7.6"/><path id="Path_284-195" class="cls-2" d="M1181.19,140.55h0c-4.2,0-7.6,3.4-7.6,7.6,0,4.2,3.4,7.6,7.6,7.6,4.2,0,7.6-3.4,7.6-7.6,0-4.2-3.4-7.6-7.6-7.6"/><path id="Path_284-196" class="cls-2" d="M1181.19,204.26h0c-4.2,0-7.6,3.4-7.6,7.6,0,4.2,3.4,7.6,7.6,7.6s7.6-3.4,7.6-7.6c0-4.2-3.4-7.6-7.6-7.6"/><path id="Path_284-197" class="cls-2" d="M1181.19,267.98h0c-4.2,0-7.6,3.4-7.6,7.6,0,4.2,3.4,7.6,7.6,7.6,4.2,0,7.6-3.4,7.6-7.6,0-4.2-3.4-7.6-7.6-7.6"/><path id="Path_284-198" class="cls-2" d="M1181.19,331.7h0c-4.2,0-7.6,3.4-7.6,7.6,0,4.2,3.4,7.6,7.6,7.6,4.2,0,7.6-3.4,7.6-7.6,0-4.2-3.4-7.6-7.6-7.6"/><path id="Path_284-199" class="cls-2" d="M1181.19,395.41h0c-4.2,0-7.6,3.4-7.6,7.6,0,4.2,3.4,7.6,7.6,7.6,4.2,0,7.6-3.4,7.6-7.6,0-4.2-3.4-7.6-7.6-7.6"/><path id="Path_284-200" class="cls-2" d="M1181.19,459.13h0c-4.2,0-7.6,3.4-7.6,7.6,0,4.2,3.4,7.6,7.6,7.6,4.2,0,7.6-3.4,7.6-7.6,0-4.2-3.4-7.6-7.6-7.6"/><path id="Path_284-201" class="cls-2" d="M1181.19,522.85h0c-4.2,0-7.6,3.4-7.6,7.6,0,4.2,3.4,7.6,7.6,7.6,4.2,0,7.6-3.4,7.6-7.6,0-4.2-3.4-7.6-7.6-7.6"/><path id="Path_284-202" class="cls-2" d="M1181.19,586.56h0c-4.2,0-7.6,3.4-7.6,7.6,0,4.2,3.4,7.6,7.6,7.6,4.2,0,7.6-3.4,7.6-7.6,0-4.2-3.4-7.6-7.6-7.6"/><path id="Path_284-203" class="cls-2" d="M1181.19,650.28h0c-4.2,0-7.6,3.4-7.6,7.6,0,4.2,3.4,7.6,7.6,7.6,4.2,0,7.6-3.4,7.6-7.6,0-4.2-3.4-7.6-7.6-7.6"/><path id="Path_284-204" class="cls-2" d="M1181.19,713.99h0c-4.2,0-7.6,3.4-7.6,7.6,0,4.2,3.4,7.6,7.6,7.6,4.2,0,7.6-3.4,7.6-7.6,0-4.2-3.4-7.6-7.6-7.6"/><path id="Path_284-205" class="cls-2" d="M1181.19,777.71h0c-4.2,0-7.6,3.4-7.6,7.6,0,4.2,3.4,7.6,7.6,7.6,4.2,0,7.6-3.4,7.6-7.6,0-4.2-3.4-7.6-7.6-7.6"/><path id="Path_284-206" class="cls-2" d="M1181.19,841.43h0c-4.2,0-7.6,3.4-7.6,7.6,0,4.2,3.4,7.6,7.6,7.6s7.6-3.4,7.6-7.6c0-4.2-3.4-7.6-7.6-7.6"/><path id="Path_284-207" class="cls-2" d="M1179.95,904.73h0c-4.2,0-7.6,3.4-7.6,7.6,0,4.2,3.4,7.6,7.6,7.6,4.2,0,7.6-3.4,7.6-7.6,0-4.2-3.4-7.6-7.6-7.6"/><path id="Path_284-208" class="cls-2" d="M1181.19,968.86h0c-4.2,0-7.6,3.4-7.6,7.6,0,4.2,3.4,7.6,7.6,7.6,4.2,0,7.6-3.4,7.6-7.6,0-4.2-3.4-7.6-7.6-7.6"/><path id="Path_284-209" class="cls-2" d="M1120.28,13.12h0c-4.2,0-7.6,3.4-7.6,7.6,0,4.2,3.4,7.6,7.6,7.6,4.2,0,7.6-3.4,7.6-7.6,0-4.2-3.4-7.6-7.6-7.6"/><path id="Path_284-210" class="cls-2" d="M1120.28,76.83h0c-4.2,0-7.6,3.4-7.6,7.6,0,4.2,3.4,7.6,7.6,7.6,4.2,0,7.6-3.4,7.6-7.6,0-4.2-3.4-7.6-7.6-7.6"/><path id="Path_284-211" class="cls-2" d="M1120.28,140.55h0c-4.2,0-7.6,3.4-7.6,7.6,0,4.2,3.4,7.6,7.6,7.6,4.2,0,7.6-3.4,7.6-7.6,0-4.2-3.4-7.6-7.6-7.6"/><path id="Path_284-212" class="cls-2" d="M1120.28,204.26h0c-4.2,0-7.6,3.4-7.6,7.6,0,4.2,3.4,7.6,7.6,7.6s7.6-3.4,7.6-7.6c0-4.2-3.4-7.6-7.6-7.6"/><path id="Path_284-213" class="cls-2" d="M1120.28,267.98h0c-4.2,0-7.6,3.4-7.6,7.6,0,4.2,3.4,7.6,7.6,7.6,4.2,0,7.6-3.4,7.6-7.6,0-4.2-3.4-7.6-7.6-7.6"/><path id="Path_284-214" class="cls-2" d="M1120.28,331.7h0c-4.2,0-7.6,3.4-7.6,7.6,0,4.2,3.4,7.6,7.6,7.6,4.2,0,7.6-3.4,7.6-7.6,0-4.2-3.4-7.6-7.6-7.6"/><path id="Path_284-215" class="cls-2" d="M1120.28,395.41h0c-4.2,0-7.6,3.4-7.6,7.6,0,4.2,3.4,7.6,7.6,7.6,4.2,0,7.6-3.4,7.6-7.6,0-4.2-3.4-7.6-7.6-7.6"/><path id="Path_284-216" class="cls-2" d="M1120.28,459.13h0c-4.2,0-7.6,3.4-7.6,7.6,0,4.2,3.4,7.6,7.6,7.6,4.2,0,7.6-3.4,7.6-7.6,0-4.2-3.4-7.6-7.6-7.6"/><path id="Path_284-217" class="cls-2" d="M1120.28,522.85h0c-4.2,0-7.6,3.4-7.6,7.6,0,4.2,3.4,7.6,7.6,7.6,4.2,0,7.6-3.4,7.6-7.6,0-4.2-3.4-7.6-7.6-7.6"/><path id="Path_284-218" class="cls-2" d="M1120.28,586.56h0c-4.2,0-7.6,3.4-7.6,7.6,0,4.2,3.4,7.6,7.6,7.6,4.2,0,7.6-3.4,7.6-7.6,0-4.2-3.4-7.6-7.6-7.6"/><path id="Path_284-219" class="cls-2" d="M1120.28,650.28h0c-4.2,0-7.6,3.4-7.6,7.6,0,4.2,3.4,7.6,7.6,7.6,4.2,0,7.6-3.4,7.6-7.6,0-4.2-3.4-7.6-7.6-7.6"/><path id="Path_284-220" class="cls-2" d="M1120.28,713.99h0c-4.2,0-7.6,3.4-7.6,7.6,0,4.2,3.4,7.6,7.6,7.6,4.2,0,7.6-3.4,7.6-7.6,0-4.2-3.4-7.6-7.6-7.6"/><path id="Path_284-221" class="cls-2" d="M1120.28,777.71h0c-4.2,0-7.6,3.4-7.6,7.6,0,4.2,3.4,7.6,7.6,7.6,4.2,0,7.6-3.4,7.6-7.6,0-4.2-3.4-7.6-7.6-7.6"/><path id="Path_284-222" class="cls-2" d="M1120.28,841.43h0c-4.2,0-7.6,3.4-7.6,7.6,0,4.2,3.4,7.6,7.6,7.6s7.6-3.4,7.6-7.6c0-4.2-3.4-7.6-7.6-7.6"/><path id="Path_284-223" class="cls-2" d="M1119.03,904.73h0c-4.2,0-7.6,3.4-7.6,7.6s3.4,7.6,7.6,7.6c4.2,0,7.6-3.4,7.6-7.6,0-4.2-3.4-7.6-7.6-7.6"/><path id="Path_284-224" class="cls-2" d="M1120.28,968.86h0c-4.2,0-7.6,3.4-7.6,7.6,0,4.2,3.4,7.6,7.6,7.6,4.2,0,7.6-3.4,7.6-7.6,0-4.2-3.4-7.6-7.6-7.6"/><path id="Path_284-225" class="cls-2" d="M1059.36,13.12h0c-4.2,0-7.6,3.4-7.6,7.6,0,4.2,3.4,7.6,7.6,7.6,4.2,0,7.6-3.4,7.6-7.6,0-4.2-3.4-7.6-7.6-7.6"/><path id="Path_284-226" class="cls-2" d="M1059.36,76.83h0c-4.2,0-7.6,3.4-7.6,7.6,0,4.2,3.4,7.6,7.6,7.6,4.2,0,7.6-3.4,7.6-7.6,0-4.2-3.4-7.6-7.6-7.6"/><path id="Path_284-227" class="cls-2" d="M1059.36,140.55h0c-4.2,0-7.6,3.4-7.6,7.6,0,4.2,3.4,7.6,7.6,7.6,4.2,0,7.6-3.4,7.6-7.6,0-4.2-3.4-7.6-7.6-7.6"/><path id="Path_284-228" class="cls-2" d="M1059.36,204.26h0c-4.2,0-7.6,3.4-7.6,7.6,0,4.2,3.4,7.6,7.6,7.6s7.6-3.4,7.6-7.6c0-4.2-3.4-7.6-7.6-7.6"/><path id="Path_284-229" class="cls-2" d="M1059.36,267.98h0c-4.2,0-7.6,3.4-7.6,7.6,0,4.2,3.4,7.6,7.6,7.6,4.2,0,7.6-3.4,7.6-7.6,0-4.2-3.4-7.6-7.6-7.6"/><path id="Path_284-230" class="cls-2" d="M1059.36,331.7h0c-4.2,0-7.6,3.4-7.6,7.6,0,4.2,3.4,7.6,7.6,7.6,4.2,0,7.6-3.4,7.6-7.6,0-4.2-3.4-7.6-7.6-7.6"/><path id="Path_284-231" class="cls-2" d="M1059.36,395.41h0c-4.2,0-7.6,3.4-7.6,7.6,0,4.2,3.4,7.6,7.6,7.6,4.2,0,7.6-3.4,7.6-7.6,0-4.2-3.4-7.6-7.6-7.6"/><path id="Path_284-232" class="cls-2" d="M1059.36,459.13h0c-4.2,0-7.6,3.4-7.6,7.6,0,4.2,3.4,7.6,7.6,7.6,4.2,0,7.6-3.4,7.6-7.6,0-4.2-3.4-7.6-7.6-7.6"/><path id="Path_284-233" class="cls-2" d="M1059.36,522.85h0c-4.2,0-7.6,3.4-7.6,7.6,0,4.2,3.4,7.6,7.6,7.6,4.2,0,7.6-3.4,7.6-7.6,0-4.2-3.4-7.6-7.6-7.6"/><path id="Path_284-234" class="cls-2" d="M1059.36,586.56h0c-4.2,0-7.6,3.4-7.6,7.6,0,4.2,3.4,7.6,7.6,7.6,4.2,0,7.6-3.4,7.6-7.6,0-4.2-3.4-7.6-7.6-7.6"/><path id="Path_284-235" class="cls-2" d="M1059.36,650.28h0c-4.2,0-7.6,3.4-7.6,7.6,0,4.2,3.4,7.6,7.6,7.6,4.2,0,7.6-3.4,7.6-7.6,0-4.2-3.4-7.6-7.6-7.6"/><path id="Path_284-236" class="cls-2" d="M1059.36,713.99h0c-4.2,0-7.6,3.4-7.6,7.6,0,4.2,3.4,7.6,7.6,7.6,4.2,0,7.6-3.4,7.6-7.6,0-4.2-3.4-7.6-7.6-7.6"/><path id="Path_284-237" class="cls-2" d="M1059.36,777.71h0c-4.2,0-7.6,3.4-7.6,7.6,0,4.2,3.4,7.6,7.6,7.6,4.2,0,7.6-3.4,7.6-7.6,0-4.2-3.4-7.6-7.6-7.6"/><path id="Path_284-238" class="cls-2" d="M1059.36,841.43h0c-4.2,0-7.6,3.4-7.6,7.6,0,4.2,3.4,7.6,7.6,7.6s7.6-3.4,7.6-7.6c0-4.2-3.4-7.6-7.6-7.6"/><path id="Path_284-239" class="cls-2" d="M1058.11,904.73h0c-4.2,0-7.6,3.4-7.6,7.6,0,4.2,3.4,7.6,7.6,7.6,4.2,0,7.6-3.4,7.6-7.6,0-4.2-3.4-7.6-7.6-7.6"/><path id="Path_284-240" class="cls-2" d="M1059.36,968.86h0c-4.2,0-7.6,3.4-7.6,7.6,0,4.2,3.4,7.6,7.6,7.6,4.2,0,7.6-3.4,7.6-7.6,0-4.2-3.4-7.6-7.6-7.6"/><path id="Path_284-241" class="cls-2" d="M998.44,13.12h0c-4.2,0-7.6,3.4-7.6,7.6,0,4.2,3.4,7.6,7.6,7.6,4.2,0,7.6-3.4,7.6-7.6,0-4.2-3.4-7.6-7.6-7.6"/><path id="Path_284-242" class="cls-2" d="M998.44,76.83h0c-4.2,0-7.6,3.4-7.6,7.6,0,4.2,3.4,7.6,7.6,7.6,4.2,0,7.6-3.4,7.6-7.6,0-4.2-3.4-7.6-7.6-7.6"/><path id="Path_284-243" class="cls-2" d="M998.44,140.55h0c-4.2,0-7.6,3.4-7.6,7.6,0,4.2,3.4,7.6,7.6,7.6,4.2,0,7.6-3.4,7.6-7.6,0-4.2-3.4-7.6-7.6-7.6"/><path id="Path_284-244" class="cls-2" d="M998.44,204.26h0c-4.2,0-7.6,3.4-7.6,7.6,0,4.2,3.4,7.6,7.6,7.6s7.6-3.4,7.6-7.6c0-4.2-3.4-7.6-7.6-7.6"/><path id="Path_284-245" class="cls-2" d="M998.44,267.98h0c-4.2,0-7.6,3.4-7.6,7.6,0,4.2,3.4,7.6,7.6,7.6,4.2,0,7.6-3.4,7.6-7.6,0-4.2-3.4-7.6-7.6-7.6"/><path id="Path_284-246" class="cls-2" d="M998.44,331.7h0c-4.2,0-7.6,3.4-7.6,7.6,0,4.2,3.4,7.6,7.6,7.6,4.2,0,7.6-3.4,7.6-7.6,0-4.2-3.4-7.6-7.6-7.6"/><path id="Path_284-247" class="cls-2" d="M998.44,395.41h0c-4.2,0-7.6,3.4-7.6,7.6,0,4.2,3.4,7.6,7.6,7.6,4.2,0,7.6-3.4,7.6-7.6,0-4.2-3.4-7.6-7.6-7.6"/><path id="Path_284-248" class="cls-2" d="M998.44,459.13h0c-4.2,0-7.6,3.4-7.6,7.6,0,4.2,3.4,7.6,7.6,7.6,4.2,0,7.6-3.4,7.6-7.6,0-4.2-3.4-7.6-7.6-7.6"/><path id="Path_284-249" class="cls-2" d="M998.44,522.85h0c-4.2,0-7.6,3.4-7.6,7.6,0,4.2,3.4,7.6,7.6,7.6,4.2,0,7.6-3.4,7.6-7.6,0-4.2-3.4-7.6-7.6-7.6"/><path id="Path_284-250" class="cls-2" d="M998.44,586.56h0c-4.2,0-7.6,3.4-7.6,7.6,0,4.2,3.4,7.6,7.6,7.6,4.2,0,7.6-3.4,7.6-7.6,0-4.2-3.4-7.6-7.6-7.6"/><path id="Path_284-251" class="cls-2" d="M998.44,650.28h0c-4.2,0-7.6,3.4-7.6,7.6,0,4.2,3.4,7.6,7.6,7.6,4.2,0,7.6-3.4,7.6-7.6,0-4.2-3.4-7.6-7.6-7.6"/><path id="Path_284-252" class="cls-2" d="M998.44,713.99h0c-4.2,0-7.6,3.4-7.6,7.6,0,4.2,3.4,7.6,7.6,7.6,4.2,0,7.6-3.4,7.6-7.6,0-4.2-3.4-7.6-7.6-7.6"/><path id="Path_284-253" class="cls-2" d="M998.44,777.71h0c-4.2,0-7.6,3.4-7.6,7.6,0,4.2,3.4,7.6,7.6,7.6,4.2,0,7.6-3.4,7.6-7.6,0-4.2-3.4-7.6-7.6-7.6"/><path id="Path_284-254" class="cls-2" d="M998.44,841.43h0c-4.2,0-7.6,3.4-7.6,7.6,0,4.2,3.4,7.6,7.6,7.6s7.6-3.4,7.6-7.6c0-4.2-3.4-7.6-7.6-7.6"/><path id="Path_284-255" class="cls-2" d="M997.19,904.73h0c-4.2,0-7.6,3.4-7.6,7.6s3.4,7.6,7.6,7.6c4.2,0,7.6-3.4,7.6-7.6,0-4.2-3.4-7.6-7.6-7.6"/><path id="Path_284-256" class="cls-2" d="M998.44,968.86h0c-4.2,0-7.6,3.4-7.6,7.6,0,4.2,3.4,7.6,7.6,7.6,4.2,0,7.6-3.4,7.6-7.6,0-4.2-3.4-7.6-7.6-7.6"/><path id="Path_284-257" class="cls-2" d="M940.99,16.91h0c-2.1,0-3.8,1.7-3.8,3.8,0,2.1,1.7,3.8,3.8,3.8,2.1,0,3.8-1.7,3.8-3.8,0-2.1-1.7-3.8-3.8-3.8"/><path id="Path_284-258" class="cls-2" d="M940.99,80.63h0c-2.1,0-3.8,1.7-3.8,3.8,0,2.1,1.7,3.8,3.8,3.8,2.1,0,3.8-1.7,3.8-3.8,0-2.1-1.7-3.8-3.8-3.8"/><path id="Path_284-259" class="cls-2" d="M940.99,144.35h0c-2.1,0-3.8,1.7-3.8,3.8,0,2.1,1.7,3.8,3.8,3.8,2.1,0,3.8-1.7,3.8-3.8,0-2.1-1.7-3.8-3.8-3.8"/><path id="Path_284-260" class="cls-2" d="M940.99,208.06h0c-2.1,0-3.8,1.7-3.8,3.8,0,2.1,1.7,3.8,3.8,3.8,2.1,0,3.8-1.7,3.8-3.8,0-2.1-1.7-3.8-3.8-3.8"/><path id="Path_284-261" class="cls-2" d="M940.99,271.78h0c-2.1,0-3.8,1.7-3.8,3.8,0,2.1,1.7,3.8,3.8,3.8,2.1,0,3.8-1.7,3.8-3.8,0-2.1-1.7-3.8-3.8-3.8"/><path id="Path_284-262" class="cls-2" d="M940.99,335.5h0c-2.1,0-3.8,1.7-3.8,3.8,0,2.1,1.7,3.8,3.8,3.8,2.1,0,3.8-1.7,3.8-3.8,0-2.1-1.7-3.8-3.8-3.8"/><path id="Path_284-263" class="cls-2" d="M940.99,399.21h0c-2.1,0-3.8,1.7-3.8,3.8,0,2.1,1.7,3.8,3.8,3.8,2.1,0,3.8-1.7,3.8-3.8,0-2.1-1.7-3.8-3.8-3.8"/><path id="Path_284-264" class="cls-2" d="M940.99,462.93h0c-2.1,0-3.8,1.7-3.8,3.8,0,2.1,1.7,3.8,3.8,3.8,2.1,0,3.8-1.7,3.8-3.8,0-2.1-1.7-3.8-3.8-3.8"/><path id="Path_284-265" class="cls-2" d="M940.99,526.64h0c-2.1,0-3.8,1.7-3.8,3.8,0,2.1,1.7,3.8,3.8,3.8s3.8-1.7,3.8-3.8c0-2.1-1.7-3.8-3.8-3.8"/><path id="Path_284-266" class="cls-2" d="M940.99,590.36h0c-2.1,0-3.8,1.7-3.8,3.8,0,2.1,1.7,3.8,3.8,3.8s3.8-1.7,3.8-3.8c0-2.1-1.7-3.8-3.8-3.8"/><path id="Path_284-267" class="cls-2" d="M940.99,654.08h0c-2.1,0-3.8,1.7-3.8,3.8,0,2.1,1.7,3.8,3.8,3.8,2.1,0,3.8-1.7,3.8-3.8,0-2.1-1.7-3.8-3.8-3.8"/><path id="Path_284-268" class="cls-2" d="M940.99,717.79h0c-2.1,0-3.8,1.7-3.8,3.8,0,2.1,1.7,3.8,3.8,3.8,2.1,0,3.8-1.7,3.8-3.8,0-2.1-1.7-3.8-3.8-3.8"/><path id="Path_284-269" class="cls-2" d="M940.99,781.51h0c-2.1,0-3.8,1.7-3.8,3.8,0,2.1,1.7,3.8,3.8,3.8s3.8-1.7,3.8-3.8c0-2.1-1.7-3.8-3.8-3.8"/><path id="Path_284-270" class="cls-2" d="M940.99,845.23h0c-2.1,0-3.8,1.7-3.8,3.8,0,2.1,1.7,3.8,3.8,3.8,2.1,0,3.8-1.7,3.8-3.8,0-2.1-1.7-3.8-3.8-3.8"/><path id="Path_284-271" class="cls-2" d="M939.75,908.53h0c-2.1,0-3.8,1.7-3.8,3.8s1.7,3.8,3.8,3.8c2.1,0,3.8-1.7,3.8-3.8,0-2.1-1.7-3.8-3.8-3.8"/><path id="Path_284-272" class="cls-2" d="M940.99,972.66h0c-2.1,0-3.8,1.7-3.8,3.8,0,2.1,1.7,3.8,3.8,3.8,2.1,0,3.8-1.7,3.8-3.8,0-2.1-1.7-3.8-3.8-3.8"/><path id="Path_284-273" class="cls-2" d="M880.38,16.91h0c-2.1,0-3.8,1.7-3.8,3.8s1.7,3.8,3.8,3.8c2.1,0,3.8-1.7,3.8-3.8,0-2.1-1.7-3.8-3.8-3.8"/><path id="Path_284-274" class="cls-2" d="M880.38,80.63h0c-2.1,0-3.8,1.7-3.8,3.8s1.7,3.8,3.8,3.8c2.1,0,3.8-1.7,3.8-3.8,0-2.1-1.7-3.8-3.8-3.8"/><path id="Path_284-275" class="cls-2" d="M880.38,144.35h0c-2.1,0-3.8,1.7-3.8,3.8s1.7,3.8,3.8,3.8c2.1,0,3.8-1.7,3.8-3.8,0-2.1-1.7-3.8-3.8-3.8"/><path id="Path_284-276" class="cls-2" d="M880.38,208.06h0c-2.1,0-3.8,1.7-3.8,3.8s1.7,3.8,3.8,3.8c2.1,0,3.8-1.7,3.8-3.8,0-2.1-1.7-3.8-3.8-3.8"/><path id="Path_284-277" class="cls-2" d="M880.38,271.78h0c-2.1,0-3.8,1.7-3.8,3.8s1.7,3.8,3.8,3.8c2.1,0,3.8-1.7,3.8-3.8,0-2.1-1.7-3.8-3.8-3.8"/><path id="Path_284-278" class="cls-2" d="M880.38,335.5h0c-2.1,0-3.8,1.7-3.8,3.8s1.7,3.8,3.8,3.8c2.1,0,3.8-1.7,3.8-3.8,0-2.1-1.7-3.8-3.8-3.8"/><path id="Path_284-279" class="cls-2" d="M880.38,399.21h0c-2.1,0-3.8,1.7-3.8,3.8s1.7,3.8,3.8,3.8c2.1,0,3.8-1.7,3.8-3.8,0-2.1-1.7-3.8-3.8-3.8"/><path id="Path_284-280" class="cls-2" d="M880.38,462.93h0c-2.1,0-3.8,1.7-3.8,3.8s1.7,3.8,3.8,3.8c2.1,0,3.8-1.7,3.8-3.8,0-2.1-1.7-3.8-3.8-3.8"/><path id="Path_284-281" class="cls-2" d="M880.38,526.64h0c-2.1,0-3.8,1.7-3.8,3.8s1.7,3.8,3.8,3.8,3.8-1.7,3.8-3.8c0-2.1-1.7-3.8-3.8-3.8"/><path id="Path_284-282" class="cls-2" d="M880.38,590.36h0c-2.1,0-3.8,1.7-3.8,3.8s1.7,3.8,3.8,3.8,3.8-1.7,3.8-3.8c0-2.1-1.7-3.8-3.8-3.8"/><path id="Path_284-283" class="cls-2" d="M880.38,654.08h0c-2.1,0-3.8,1.7-3.8,3.8s1.7,3.8,3.8,3.8c2.1,0,3.8-1.7,3.8-3.8,0-2.1-1.7-3.8-3.8-3.8"/><path id="Path_284-284" class="cls-2" d="M880.38,717.79h0c-2.1,0-3.8,1.7-3.8,3.8s1.7,3.8,3.8,3.8c2.1,0,3.8-1.7,3.8-3.8,0-2.1-1.7-3.8-3.8-3.8"/><path id="Path_284-285" class="cls-2" d="M880.38,781.51h0c-2.1,0-3.8,1.7-3.8,3.8s1.7,3.8,3.8,3.8,3.8-1.7,3.8-3.8c0-2.1-1.7-3.8-3.8-3.8"/><path id="Path_284-286" class="cls-2" d="M880.38,845.23h0c-2.1,0-3.8,1.7-3.8,3.8s1.7,3.8,3.8,3.8c2.1,0,3.8-1.7,3.8-3.8,0-2.1-1.7-3.8-3.8-3.8"/><path id="Path_284-287" class="cls-2" d="M879.14,908.53h0c-2.1,0-3.8,1.7-3.8,3.8,0,2.1,1.7,3.8,3.8,3.8,2.1,0,3.8-1.7,3.8-3.8,0-2.1-1.7-3.8-3.8-3.8"/><path id="Path_284-288" class="cls-2" d="M880.38,972.66h0c-2.1,0-3.8,1.7-3.8,3.8s1.7,3.8,3.8,3.8c2.1,0,3.8-1.7,3.8-3.8,0-2.1-1.7-3.8-3.8-3.8"/><path id="Path_284-289" class="cls-2" d="M819.77,16.91h0c-2.1,0-3.8,1.7-3.8,3.8,0,2.1,1.7,3.8,3.8,3.8,2.1,0,3.8-1.7,3.8-3.8,0-2.1-1.7-3.8-3.8-3.8"/><path id="Path_284-290" class="cls-2" d="M819.77,80.63h0c-2.1,0-3.8,1.7-3.8,3.8,0,2.1,1.7,3.8,3.8,3.8,2.1,0,3.8-1.7,3.8-3.8,0-2.1-1.7-3.8-3.8-3.8"/><path id="Path_284-291" class="cls-2" d="M819.77,144.35h0c-2.1,0-3.8,1.7-3.8,3.8,0,2.1,1.7,3.8,3.8,3.8,2.1,0,3.8-1.7,3.8-3.8,0-2.1-1.7-3.8-3.8-3.8"/><path id="Path_284-292" class="cls-2" d="M819.77,208.06h0c-2.1,0-3.8,1.7-3.8,3.8,0,2.1,1.7,3.8,3.8,3.8,2.1,0,3.8-1.7,3.8-3.8,0-2.1-1.7-3.8-3.8-3.8"/><path id="Path_284-293" class="cls-2" d="M819.77,271.78h0c-2.1,0-3.8,1.7-3.8,3.8,0,2.1,1.7,3.8,3.8,3.8,2.1,0,3.8-1.7,3.8-3.8,0-2.1-1.7-3.8-3.8-3.8"/><path id="Path_284-294" class="cls-2" d="M819.77,335.5h0c-2.1,0-3.8,1.7-3.8,3.8,0,2.1,1.7,3.8,3.8,3.8,2.1,0,3.8-1.7,3.8-3.8,0-2.1-1.7-3.8-3.8-3.8"/><path id="Path_284-295" class="cls-2" d="M819.77,399.21h0c-2.1,0-3.8,1.7-3.8,3.8,0,2.1,1.7,3.8,3.8,3.8,2.1,0,3.8-1.7,3.8-3.8,0-2.1-1.7-3.8-3.8-3.8"/><path id="Path_284-296" class="cls-2" d="M819.77,462.93h0c-2.1,0-3.8,1.7-3.8,3.8,0,2.1,1.7,3.8,3.8,3.8,2.1,0,3.8-1.7,3.8-3.8,0-2.1-1.7-3.8-3.8-3.8"/><path id="Path_284-297" class="cls-2" d="M819.77,526.64h0c-2.1,0-3.8,1.7-3.8,3.8,0,2.1,1.7,3.8,3.8,3.8s3.8-1.7,3.8-3.8c0-2.1-1.7-3.8-3.8-3.8"/><path id="Path_284-298" class="cls-2" d="M819.77,590.36h0c-2.1,0-3.8,1.7-3.8,3.8,0,2.1,1.7,3.8,3.8,3.8s3.8-1.7,3.8-3.8c0-2.1-1.7-3.8-3.8-3.8"/><path id="Path_284-299" class="cls-2" d="M819.77,654.08h0c-2.1,0-3.8,1.7-3.8,3.8,0,2.1,1.7,3.8,3.8,3.8,2.1,0,3.8-1.7,3.8-3.8,0-2.1-1.7-3.8-3.8-3.8"/><path id="Path_284-300" class="cls-2" d="M819.77,717.79h0c-2.1,0-3.8,1.7-3.8,3.8,0,2.1,1.7,3.8,3.8,3.8,2.1,0,3.8-1.7,3.8-3.8,0-2.1-1.7-3.8-3.8-3.8"/><path id="Path_284-301" class="cls-2" d="M819.77,781.51h0c-2.1,0-3.8,1.7-3.8,3.8,0,2.1,1.7,3.8,3.8,3.8s3.8-1.7,3.8-3.8c0-2.1-1.7-3.8-3.8-3.8"/><path id="Path_284-302" class="cls-2" d="M819.77,845.23h0c-2.1,0-3.8,1.7-3.8,3.8,0,2.1,1.7,3.8,3.8,3.8,2.1,0,3.8-1.7,3.8-3.8,0-2.1-1.7-3.8-3.8-3.8"/><path id="Path_284-303" class="cls-2" d="M818.53,908.53h0c-2.1,0-3.8,1.7-3.8,3.8,0,2.1,1.7,3.8,3.8,3.8,2.1,0,3.8-1.7,3.8-3.8,0-2.1-1.7-3.8-3.8-3.8"/><path id="Path_284-304" class="cls-2" d="M819.77,972.66h0c-2.1,0-3.8,1.7-3.8,3.8,0,2.1,1.7,3.8,3.8,3.8,2.1,0,3.8-1.7,3.8-3.8,0-2.1-1.7-3.8-3.8-3.8"/><path id="Path_284-305" class="cls-2" d="M759.16,16.91h0c-2.1,0-3.8,1.7-3.8,3.8,0,2.1,1.7,3.8,3.8,3.8,2.1,0,3.8-1.7,3.8-3.8,0-2.1-1.7-3.8-3.8-3.8"/><path id="Path_284-306" class="cls-2" d="M759.16,80.63h0c-2.1,0-3.8,1.7-3.8,3.8,0,2.1,1.7,3.8,3.8,3.8,2.1,0,3.8-1.7,3.8-3.8,0-2.1-1.7-3.8-3.8-3.8"/><path id="Path_284-307" class="cls-2" d="M759.16,144.35h0c-2.1,0-3.8,1.7-3.8,3.8,0,2.1,1.7,3.8,3.8,3.8,2.1,0,3.8-1.7,3.8-3.8,0-2.1-1.7-3.8-3.8-3.8"/><path id="Path_284-308" class="cls-2" d="M759.16,208.06h0c-2.1,0-3.8,1.7-3.8,3.8,0,2.1,1.7,3.8,3.8,3.8,2.1,0,3.8-1.7,3.8-3.8,0-2.1-1.7-3.8-3.8-3.8"/><path id="Path_284-309" class="cls-2" d="M759.16,271.78h0c-2.1,0-3.8,1.7-3.8,3.8,0,2.1,1.7,3.8,3.8,3.8,2.1,0,3.8-1.7,3.8-3.8,0-2.1-1.7-3.8-3.8-3.8"/><path id="Path_284-310" class="cls-2" d="M759.16,335.5h0c-2.1,0-3.8,1.7-3.8,3.8,0,2.1,1.7,3.8,3.8,3.8,2.1,0,3.8-1.7,3.8-3.8,0-2.1-1.7-3.8-3.8-3.8"/><path id="Path_284-311" class="cls-2" d="M759.16,399.21h0c-2.1,0-3.8,1.7-3.8,3.8,0,2.1,1.7,3.8,3.8,3.8,2.1,0,3.8-1.7,3.8-3.8,0-2.1-1.7-3.8-3.8-3.8"/><path id="Path_284-312" class="cls-2" d="M759.16,462.93h0c-2.1,0-3.8,1.7-3.8,3.8,0,2.1,1.7,3.8,3.8,3.8,2.1,0,3.8-1.7,3.8-3.8,0-2.1-1.7-3.8-3.8-3.8"/><path id="Path_284-313" class="cls-2" d="M759.16,526.64h0c-2.1,0-3.8,1.7-3.8,3.8,0,2.1,1.7,3.8,3.8,3.8s3.8-1.7,3.8-3.8c0-2.1-1.7-3.8-3.8-3.8"/><path id="Path_284-314" class="cls-2" d="M759.16,590.36h0c-2.1,0-3.8,1.7-3.8,3.8,0,2.1,1.7,3.8,3.8,3.8s3.8-1.7,3.8-3.8c0-2.1-1.7-3.8-3.8-3.8"/><path id="Path_284-315" class="cls-2" d="M759.16,654.08h0c-2.1,0-3.8,1.7-3.8,3.8,0,2.1,1.7,3.8,3.8,3.8,2.1,0,3.8-1.7,3.8-3.8,0-2.1-1.7-3.8-3.8-3.8"/><path id="Path_284-316" class="cls-2" d="M759.16,717.79h0c-2.1,0-3.8,1.7-3.8,3.8,0,2.1,1.7,3.8,3.8,3.8,2.1,0,3.8-1.7,3.8-3.8,0-2.1-1.7-3.8-3.8-3.8"/><path id="Path_284-317" class="cls-2" d="M759.16,781.51h0c-2.1,0-3.8,1.7-3.8,3.8,0,2.1,1.7,3.8,3.8,3.8s3.8-1.7,3.8-3.8c0-2.1-1.7-3.8-3.8-3.8"/><path id="Path_284-318" class="cls-2" d="M759.16,845.23h0c-2.1,0-3.8,1.7-3.8,3.8,0,2.1,1.7,3.8,3.8,3.8,2.1,0,3.8-1.7,3.8-3.8,0-2.1-1.7-3.8-3.8-3.8"/><path id="Path_284-319" class="cls-2" d="M757.92,908.53h0c-2.1,0-3.8,1.7-3.8,3.8,0,2.1,1.7,3.8,3.8,3.8,2.1,0,3.8-1.7,3.8-3.8,0-2.1-1.7-3.8-3.8-3.8"/><path id="Path_284-320" class="cls-2" d="M759.16,972.66h0c-2.1,0-3.8,1.7-3.8,3.8,0,2.1,1.7,3.8,3.8,3.8,2.1,0,3.8-1.7,3.8-3.8,0-2.1-1.7-3.8-3.8-3.8"/></g></g></svg>