<?xml version="1.0" encoding="UTF-8"?><svg id="Layer_2" xmlns="http://www.w3.org/2000/svg" xmlns:xlink="http://www.w3.org/1999/xlink" viewBox="0 0 2074.06 1223.39"><defs><style>.cls-1{fill:none;}.cls-2{fill:#44578d;}.cls-3{clip-path:url(#clippath);}</style><clipPath id="clippath"><rect class="cls-1" x="154.06" y="70.74" width="1920" height="1080"/></clipPath></defs><g id="Layer_1-2"><g class="cls-3"><path id="Path_216" class="cls-2" d="M740.18,593.4h0c-10.55,10.55-10.68,27.54-.28,37.94,10.4,10.4,27.39,10.28,37.94-.28,10.55-10.55,10.68-27.54.28-37.94-10.4-10.4-27.39-10.28-37.94.28"/><path id="Path_228" class="cls-2" d="M667.01,520.22h0c-10.55,10.55-10.68,27.54-.28,37.94,10.4,10.4,27.39,10.28,37.94-.28,10.55-10.55,10.68-27.54.28-37.94-10.4-10.4-27.39-10.28-37.94.28"/><path id="Path_239" class="cls-2" d="M593.83,447.05h0c-10.55,10.55-10.68,27.54-.28,37.94,10.4,10.4,27.39,10.28,37.94-.28,10.55-10.55,10.68-27.54.28-37.94-10.4-10.4-27.39-10.28-37.94.28"/><path id="Path_249" class="cls-2" d="M520.66,373.87h0c-10.55,10.55-10.68,27.54-.28,37.94,10.4,10.4,27.39,10.28,37.94-.28,10.55-10.55,10.68-27.54.28-37.94-10.4-10.4-27.39-10.28-37.94.28"/><path id="Path_258" class="cls-2" d="M447.48,300.7h0c-10.55,10.55-10.68,27.54-.28,37.94,10.4,10.4,27.39,10.28,37.94-.28,10.55-10.55,10.68-27.54.28-37.94-10.4-10.4-27.39-10.28-37.94.28"/><path id="Path_266" class="cls-2" d="M374.31,227.52h0c-10.55,10.55-10.68,27.54-.28,37.94,10.4,10.4,27.39,10.28,37.94-.28,10.55-10.55,10.68-27.54.28-37.94-10.4-10.4-27.39-10.28-37.94.28"/><path id="Path_273" class="cls-2" d="M301.13,154.35h0c-10.55,10.55-10.68,27.54-.28,37.94,10.4,10.4,27.39,10.28,37.94-.28,10.55-10.55,10.68-27.54.28-37.94-10.4-10.4-27.39-10.28-37.94.28"/><path id="Path_279" class="cls-2" d="M227.96,81.18h0c-10.55,10.55-10.68,27.54-.28,37.94,10.4,10.4,27.39,10.28,37.94-.28,10.55-10.55,10.68-27.54.28-37.94-10.4-10.4-27.39-10.28-37.94.28"/><path id="Path_215" class="cls-2" d="M666.32,667.26h0c-10.55,10.55-10.68,27.54-.28,37.94,10.4,10.4,27.39,10.28,37.94-.28,10.55-10.55,10.68-27.54.28-37.94-10.4-10.4-27.39-10.28-37.94.28"/><path id="Path_227" class="cls-2" d="M593.15,594.08h0c-10.55,10.55-10.68,27.54-.28,37.94,10.4,10.4,27.39,10.28,37.94-.28,10.55-10.55,10.68-27.54.28-37.94-10.4-10.4-27.39-10.28-37.94.28"/><path id="Path_238" class="cls-2" d="M519.97,520.91h0c-10.55,10.55-10.68,27.54-.28,37.94,10.4,10.4,27.39,10.28,37.94-.28,10.55-10.55,10.68-27.54.28-37.94-10.4-10.4-27.39-10.28-37.94.28"/><path id="Path_248" class="cls-2" d="M446.8,447.73h0c-10.55,10.55-10.68,27.54-.28,37.94s27.39,10.28,37.94-.28c10.55-10.55,10.68-27.54.28-37.94-10.4-10.4-27.39-10.28-37.94.28"/><path id="Path_257" class="cls-2" d="M373.63,374.56h0c-10.55,10.55-10.68,27.54-.28,37.94,10.4,10.4,27.39,10.28,37.94-.28,10.55-10.55,10.68-27.54.28-37.94-10.4-10.4-27.39-10.28-37.94.28"/><path id="Path_265" class="cls-2" d="M300.45,301.38h0c-10.55,10.55-10.68,27.54-.28,37.94,10.4,10.4,27.39,10.28,37.94-.28,10.55-10.55,10.68-27.54.28-37.94-10.4-10.4-27.39-10.28-37.94.28"/><path id="Path_272" class="cls-2" d="M227.28,228.21h0c-10.55,10.55-10.68,27.54-.28,37.94,10.4,10.4,27.39,10.28,37.94-.28,10.55-10.55,10.68-27.54.28-37.94-10.4-10.4-27.39-10.28-37.94.28"/><path id="Path_278" class="cls-2" d="M154.1,155.04h0c-10.55,10.55-10.68,27.54-.28,37.94,10.4,10.4,27.39,10.28,37.94-.28,10.55-10.55,10.68-27.54.28-37.94-10.4-10.4-27.39-10.28-37.94.28"/><path id="Path_283" class="cls-2" d="M80.92,81.86h0c-10.55,10.55-10.68,27.54-.28,37.94,10.4,10.4,27.39,10.28,37.94-.28,10.55-10.55,10.68-27.54.28-37.94-10.4-10.4-27.39-10.28-37.94.28"/><path id="Path_215-2" class="cls-2" d="M593.4,740.18h0c-10.55,10.55-10.68,27.54-.28,37.94,10.4,10.4,27.39,10.28,37.94-.28,10.55-10.55,10.68-27.54.28-37.94-10.4-10.4-27.39-10.28-37.94.28"/><path id="Path_227-2" class="cls-2" d="M520.22,667.01h0c-10.55,10.55-10.68,27.54-.28,37.94,10.4,10.4,27.39,10.28,37.94-.28,10.55-10.55,10.68-27.54.28-37.94-10.4-10.4-27.39-10.28-37.94.28"/><path id="Path_238-2" class="cls-2" d="M447.05,593.83h0c-10.55,10.55-10.68,27.54-.28,37.94,10.4,10.4,27.39,10.28,37.94-.28,10.55-10.55,10.68-27.54.28-37.94-10.4-10.4-27.39-10.28-37.94.28"/><path id="Path_248-2" class="cls-2" d="M373.87,520.66h0c-10.55,10.55-10.68,27.54-.28,37.94,10.4,10.4,27.39,10.28,37.94-.28,10.55-10.55,10.68-27.54.28-37.94-10.4-10.4-27.39-10.28-37.94.28"/><path id="Path_257-2" class="cls-2" d="M300.7,447.48h0c-10.55,10.55-10.68,27.54-.28,37.94,10.4,10.4,27.39,10.28,37.94-.28,10.55-10.55,10.68-27.54.28-37.94-10.4-10.4-27.39-10.28-37.94.28"/><path id="Path_265-2" class="cls-2" d="M227.52,374.31h0c-10.55,10.55-10.68,27.54-.28,37.94,10.4,10.4,27.39,10.28,37.94-.28,10.55-10.55,10.68-27.54.28-37.94-10.4-10.4-27.39-10.28-37.94.28"/><path id="Path_272-2" class="cls-2" d="M154.35,301.13h0c-10.55,10.55-10.68,27.54-.28,37.94,10.4,10.4,27.39,10.28,37.94-.28,10.55-10.55,10.68-27.54.28-37.94-10.4-10.4-27.39-10.28-37.94.28"/><path id="Path_278-2" class="cls-2" d="M81.18,227.96h0c-10.55,10.55-10.68,27.54-.28,37.94,10.4,10.4,27.39,10.28,37.94-.28,10.55-10.55,10.68-27.54.28-37.94-10.4-10.4-27.39-10.28-37.94.28"/><path id="Path_283-2" class="cls-2" d="M8,154.78h0c-10.55,10.55-10.68,27.54-.28,37.94,10.4,10.4,27.39,10.28,37.94-.28,10.55-10.55,10.68-27.54.28-37.94-10.4-10.4-27.39-10.28-37.94.28"/><path id="Path_215-3" class="cls-2" d="M520.47,813.11h0c-10.55,10.55-10.68,27.54-.28,37.94,10.4,10.4,27.39,10.28,37.94-.28,10.55-10.55,10.68-27.54.28-37.94-10.4-10.4-27.39-10.28-37.94.28"/><path id="Path_227-3" class="cls-2" d="M447.3,739.93h0c-10.55,10.55-10.68,27.54-.28,37.94,10.4,10.4,27.39,10.28,37.94-.28,10.55-10.55,10.68-27.54.28-37.94-10.4-10.4-27.39-10.28-37.94.28"/><path id="Path_238-3" class="cls-2" d="M374.12,666.76h0c-10.55,10.55-10.68,27.54-.28,37.94,10.4,10.4,27.39,10.28,37.94-.28,10.55-10.55,10.68-27.54.28-37.94-10.4-10.4-27.39-10.28-37.94.28"/><path id="Path_215-4" class="cls-2" d="M447.55,886.03h0c-10.55,10.55-10.68,27.54-.28,37.94,10.4,10.4,27.39,10.28,37.94-.28,10.55-10.55,10.68-27.54.28-37.94-10.4-10.4-27.39-10.28-37.94.28"/><path id="Path_227-4" class="cls-2" d="M374.37,812.86h0c-10.55,10.55-10.68,27.54-.28,37.94,10.4,10.4,27.39,10.28,37.94-.28,10.55-10.55,10.68-27.54.28-37.94-10.4-10.4-27.39-10.28-37.94.28"/><path id="Path_238-4" class="cls-2" d="M301.2,739.68h0c-10.55,10.55-10.68,27.54-.28,37.94,10.4,10.4,27.39,10.28,37.94-.28,10.55-10.55,10.68-27.54.28-37.94-10.4-10.4-27.39-10.28-37.94.28"/><path id="Path_215-5" class="cls-2" d="M374.62,958.96h0c-10.55,10.55-10.68,27.54-.28,37.94,10.4,10.4,27.39,10.28,37.94-.28,10.55-10.55,10.68-27.54.28-37.94-10.4-10.4-27.39-10.28-37.94.28"/><path id="Path_227-5" class="cls-2" d="M301.45,885.78h0c-10.55,10.55-10.68,27.54-.28,37.94,10.4,10.4,27.39,10.28,37.94-.28,10.55-10.55,10.68-27.54.28-37.94-10.4-10.4-27.39-10.28-37.94.28"/><path id="Path_238-5" class="cls-2" d="M228.28,812.61h0c-10.55,10.55-10.68,27.54-.28,37.94,10.4,10.4,27.39,10.28,37.94-.28,10.55-10.55,10.68-27.54.28-37.94-10.4-10.4-27.39-10.28-37.94.28"/><path id="Path_215-6" class="cls-2" d="M301.7,1031.88h0c-10.55,10.55-10.68,27.54-.28,37.94s27.39,10.28,37.94-.28c10.55-10.55,10.68-27.54.28-37.94-10.4-10.4-27.39-10.28-37.94.28"/><path id="Path_227-6" class="cls-2" d="M228.53,958.71h0c-10.55,10.55-10.68,27.54-.28,37.94,10.4,10.4,27.39,10.28,37.94-.28,10.55-10.55,10.68-27.54.28-37.94-10.4-10.4-27.39-10.28-37.94.28"/><path id="Path_238-6" class="cls-2" d="M155.35,885.53h0c-10.55,10.55-10.68,27.54-.28,37.94,10.4,10.4,27.39,10.28,37.94-.28,10.55-10.55,10.68-27.54.28-37.94-10.4-10.4-27.39-10.28-37.94.28"/><path id="Path_215-7" class="cls-2" d="M228.77,1104.81h0c-10.55,10.55-10.68,27.54-.28,37.94,10.4,10.4,27.39,10.28,37.94-.28,10.55-10.55,10.68-27.54.28-37.94-10.4-10.4-27.39-10.28-37.94.28"/><path id="Path_227-7" class="cls-2" d="M155.6,1031.63h0c-10.55,10.55-10.68,27.54-.28,37.94,10.4,10.4,27.39,10.28,37.94-.28,10.55-10.55,10.68-27.54.28-37.94-10.4-10.4-27.39-10.28-37.94.28"/><path id="Path_238-7" class="cls-2" d="M82.43,958.46h0c-10.55,10.55-10.68,27.54-.28,37.94,10.4,10.4,27.39,10.28,37.94-.28,10.55-10.55,10.68-27.54.28-37.94-10.4-10.4-27.39-10.28-37.94.28"/><path id="Path_215-8" class="cls-2" d="M155.85,1177.73h0c-10.55,10.55-10.68,27.54-.28,37.94,10.4,10.4,27.39,10.28,37.94-.28,10.55-10.55,10.68-27.54.28-37.94-10.4-10.4-27.39-10.28-37.94.28"/><path id="Path_227-8" class="cls-2" d="M82.68,1104.56h0c-10.55,10.55-10.68,27.54-.28,37.94s27.39,10.28,37.94-.28c10.55-10.55,10.68-27.54.28-37.94-10.4-10.4-27.39-10.28-37.94.28"/><path id="Path_238-8" class="cls-2" d="M9.5,1031.38h0c-10.55,10.55-10.68,27.54-.28,37.94,10.4,10.4,27.39,10.28,37.94-.28,10.55-10.55,10.68-27.54.28-37.94-10.4-10.4-27.39-10.28-37.94.28"/><path id="Path_284" class="cls-2" d="M154.78,8h0c-10.55,10.55-10.68,27.54-.28,37.94,10.4,10.4,27.39,10.28,37.94-.28,10.55-10.55,10.68-27.54.28-37.94-10.4-10.4-27.39-10.28-37.94.28"/><path id="Path_216-2" class="cls-2" d="M1280.35,593.4h0c-10.55,10.55-10.68,27.54-.28,37.94,10.4,10.4,27.39,10.28,37.94-.28,10.55-10.55,10.68-27.54.28-37.94-10.4-10.4-27.39-10.28-37.94.28"/><path id="Path_228-2" class="cls-2" d="M1207.18,520.22h0c-10.55,10.55-10.68,27.54-.28,37.94,10.4,10.4,27.39,10.28,37.94-.28,10.55-10.55,10.68-27.54.28-37.94-10.4-10.4-27.39-10.28-37.94.28"/><path id="Path_239-2" class="cls-2" d="M1134,447.05h0c-10.55,10.55-10.68,27.54-.28,37.94,10.4,10.4,27.39,10.28,37.94-.28,10.55-10.55,10.68-27.54.28-37.94-10.4-10.4-27.39-10.28-37.94.28"/><path id="Path_249-2" class="cls-2" d="M1060.83,373.87h0c-10.55,10.55-10.68,27.54-.28,37.94,10.4,10.4,27.39,10.28,37.94-.28,10.55-10.55,10.68-27.54.28-37.94s-27.39-10.28-37.94.28"/><path id="Path_258-2" class="cls-2" d="M987.65,300.7h0c-10.55,10.55-10.68,27.54-.28,37.94,10.4,10.4,27.39,10.28,37.94-.28,10.55-10.55,10.68-27.54.28-37.94-10.4-10.4-27.39-10.28-37.94.28"/><path id="Path_266-2" class="cls-2" d="M914.48,227.52h0c-10.55,10.55-10.68,27.54-.28,37.94,10.4,10.4,27.39,10.28,37.94-.28,10.55-10.55,10.68-27.54.28-37.94-10.4-10.4-27.39-10.28-37.94.28"/><path id="Path_273-2" class="cls-2" d="M841.31,154.35h0c-10.55,10.55-10.68,27.54-.28,37.94,10.4,10.4,27.39,10.28,37.94-.28,10.55-10.55,10.68-27.54.28-37.94-10.4-10.4-27.39-10.28-37.94.28"/><path id="Path_279-2" class="cls-2" d="M768.13,81.18h0c-10.55,10.55-10.68,27.54-.28,37.94,10.4,10.4,27.39,10.28,37.94-.28,10.55-10.55,10.68-27.54.28-37.94-10.4-10.4-27.39-10.28-37.94.28"/><path id="Path_215-9" class="cls-2" d="M1206.49,667.26h0c-10.55,10.55-10.68,27.54-.28,37.94,10.4,10.4,27.39,10.28,37.94-.28,10.55-10.55,10.68-27.54.28-37.94-10.4-10.4-27.39-10.28-37.94.28"/><path id="Path_227-9" class="cls-2" d="M1133.32,594.08h0c-10.55,10.55-10.68,27.54-.28,37.94,10.4,10.4,27.39,10.28,37.94-.28,10.55-10.55,10.68-27.54.28-37.94s-27.39-10.28-37.94.28"/><path id="Path_238-9" class="cls-2" d="M1060.14,520.91h0c-10.55,10.55-10.68,27.54-.28,37.94,10.4,10.4,27.39,10.28,37.94-.28,10.55-10.55,10.68-27.54.28-37.94-10.4-10.4-27.39-10.28-37.94.28"/><path id="Path_248-3" class="cls-2" d="M986.97,447.73h0c-10.55,10.55-10.68,27.54-.28,37.94s27.39,10.28,37.94-.28c10.55-10.55,10.68-27.54.28-37.94-10.4-10.4-27.39-10.28-37.94.28"/><path id="Path_257-3" class="cls-2" d="M913.8,374.56h0c-10.55,10.55-10.68,27.54-.28,37.94,10.4,10.4,27.39,10.28,37.94-.28,10.55-10.55,10.68-27.54.28-37.94-10.4-10.4-27.39-10.28-37.94.28"/><path id="Path_265-3" class="cls-2" d="M840.62,301.38h0c-10.55,10.55-10.68,27.54-.28,37.94,10.4,10.4,27.39,10.28,37.94-.28,10.55-10.55,10.68-27.54.28-37.94-10.4-10.4-27.39-10.28-37.94.28"/><path id="Path_272-3" class="cls-2" d="M767.45,228.21h0c-10.55,10.55-10.68,27.54-.28,37.94,10.4,10.4,27.39,10.28,37.94-.28,10.55-10.55,10.68-27.54.28-37.94-10.4-10.4-27.39-10.28-37.94.28"/><path id="Path_278-3" class="cls-2" d="M694.27,155.04h0c-10.55,10.55-10.68,27.54-.28,37.94,10.4,10.4,27.39,10.28,37.94-.28,10.55-10.55,10.68-27.54.28-37.94-10.4-10.4-27.39-10.28-37.94.28"/><path id="Path_283-3" class="cls-2" d="M621.09,81.86h0c-10.55,10.55-10.68,27.54-.28,37.94,10.4,10.4,27.39,10.28,37.94-.28,10.55-10.55,10.68-27.54.28-37.94-10.4-10.4-27.39-10.28-37.94.28"/><path id="Path_215-10" class="cls-2" d="M1133.57,740.18h0c-10.55,10.55-10.68,27.54-.28,37.94,10.4,10.4,27.39,10.28,37.94-.28,10.55-10.55,10.68-27.54.28-37.94-10.4-10.4-27.39-10.28-37.94.28"/><path id="Path_227-10" class="cls-2" d="M1060.39,667.01h0c-10.55,10.55-10.68,27.54-.28,37.94,10.4,10.4,27.39,10.28,37.94-.28,10.55-10.55,10.68-27.54.28-37.94-10.4-10.4-27.39-10.28-37.94.28"/><path id="Path_238-10" class="cls-2" d="M987.22,593.83h0c-10.55,10.55-10.68,27.54-.28,37.94,10.4,10.4,27.39,10.28,37.94-.28,10.55-10.55,10.68-27.54.28-37.94-10.4-10.4-27.39-10.28-37.94.28"/><path id="Path_248-4" class="cls-2" d="M914.05,520.66h0c-10.55,10.55-10.68,27.54-.28,37.94,10.4,10.4,27.39,10.28,37.94-.28,10.55-10.55,10.68-27.54.28-37.94-10.4-10.4-27.39-10.28-37.94.28"/><path id="Path_257-4" class="cls-2" d="M840.87,447.48h0c-10.55,10.55-10.68,27.54-.28,37.94,10.4,10.4,27.39,10.28,37.94-.28,10.55-10.55,10.68-27.54.28-37.94-10.4-10.4-27.39-10.28-37.94.28"/><path id="Path_265-4" class="cls-2" d="M767.69,374.31h0c-10.55,10.55-10.68,27.54-.28,37.94,10.4,10.4,27.39,10.28,37.94-.28,10.55-10.55,10.68-27.54.28-37.94-10.4-10.4-27.39-10.28-37.94.28"/><path id="Path_272-4" class="cls-2" d="M694.52,301.13h0c-10.55,10.55-10.68,27.54-.28,37.94,10.4,10.4,27.39,10.28,37.94-.28,10.55-10.55,10.68-27.54.28-37.94-10.4-10.4-27.39-10.28-37.94.28"/><path id="Path_278-4" class="cls-2" d="M621.35,227.96h0c-10.55,10.55-10.68,27.54-.28,37.94,10.4,10.4,27.39,10.28,37.94-.28,10.55-10.55,10.68-27.54.28-37.94-10.4-10.4-27.39-10.28-37.94.28"/><path id="Path_283-4" class="cls-2" d="M548.17,154.78h0c-10.55,10.55-10.68,27.54-.28,37.94,10.4,10.4,27.39,10.28,37.94-.28,10.55-10.55,10.68-27.54.28-37.94-10.4-10.4-27.39-10.28-37.94.28"/><path id="Path_215-11" class="cls-2" d="M1060.64,813.11h0c-10.55,10.55-10.68,27.54-.28,37.94,10.4,10.4,27.39,10.28,37.94-.28,10.55-10.55,10.68-27.54.28-37.94-10.4-10.4-27.39-10.28-37.94.28"/><path id="Path_227-11" class="cls-2" d="M987.47,739.93h0c-10.55,10.55-10.68,27.54-.28,37.94,10.4,10.4,27.39,10.28,37.94-.28,10.55-10.55,10.68-27.54.28-37.94-10.4-10.4-27.39-10.28-37.94.28"/><path id="Path_238-11" class="cls-2" d="M914.29,666.76h0c-10.55,10.55-10.68,27.54-.28,37.94,10.4,10.4,27.39,10.28,37.94-.28,10.55-10.55,10.68-27.54.28-37.94-10.4-10.4-27.39-10.28-37.94.28"/><path id="Path_215-12" class="cls-2" d="M987.72,886.03h0c-10.55,10.55-10.68,27.54-.28,37.94,10.4,10.4,27.39,10.28,37.94-.28,10.55-10.55,10.68-27.54.28-37.94-10.4-10.4-27.39-10.28-37.94.28"/><path id="Path_227-12" class="cls-2" d="M914.54,812.86h0c-10.55,10.55-10.68,27.54-.28,37.94,10.4,10.4,27.39,10.28,37.94-.28,10.55-10.55,10.68-27.54.28-37.94-10.4-10.4-27.39-10.28-37.94.28"/><path id="Path_238-12" class="cls-2" d="M841.37,739.68h0c-10.55,10.55-10.68,27.54-.28,37.94,10.4,10.4,27.39,10.28,37.94-.28,10.55-10.55,10.68-27.54.28-37.94-10.4-10.4-27.39-10.28-37.94.28"/><path id="Path_215-13" class="cls-2" d="M914.79,958.96h0c-10.55,10.55-10.68,27.54-.28,37.94,10.4,10.4,27.39,10.28,37.94-.28,10.55-10.55,10.68-27.54.28-37.94-10.4-10.4-27.39-10.28-37.94.28"/><path id="Path_227-13" class="cls-2" d="M841.62,885.78h0c-10.55,10.55-10.68,27.54-.28,37.94,10.4,10.4,27.39,10.28,37.94-.28,10.55-10.55,10.68-27.54.28-37.94-10.4-10.4-27.39-10.28-37.94.28"/><path id="Path_238-13" class="cls-2" d="M768.45,812.61h0c-10.55,10.55-10.68,27.54-.28,37.94,10.4,10.4,27.39,10.28,37.94-.28,10.55-10.55,10.68-27.54.28-37.94-10.4-10.4-27.39-10.28-37.94.28"/><path id="Path_215-14" class="cls-2" d="M841.87,1031.88h0c-10.55,10.55-10.68,27.54-.28,37.94s27.39,10.28,37.94-.28c10.55-10.55,10.68-27.54.28-37.94-10.4-10.4-27.39-10.28-37.94.28"/><path id="Path_227-14" class="cls-2" d="M768.7,958.71h0c-10.55,10.55-10.68,27.54-.28,37.94,10.4,10.4,27.39,10.28,37.94-.28,10.55-10.55,10.68-27.54.28-37.94-10.4-10.4-27.39-10.28-37.94.28"/><path id="Path_238-14" class="cls-2" d="M695.52,885.53h0c-10.55,10.55-10.68,27.54-.28,37.94,10.4,10.4,27.39,10.28,37.94-.28,10.55-10.55,10.68-27.54.28-37.94-10.4-10.4-27.39-10.28-37.94.28"/><path id="Path_215-15" class="cls-2" d="M768.95,1104.81h0c-10.55,10.55-10.68,27.54-.28,37.94,10.4,10.4,27.39,10.28,37.94-.28,10.55-10.55,10.68-27.54.28-37.94-10.4-10.4-27.39-10.28-37.94.28"/><path id="Path_227-15" class="cls-2" d="M695.77,1031.63h0c-10.55,10.55-10.68,27.54-.28,37.94,10.4,10.4,27.39,10.28,37.94-.28,10.55-10.55,10.68-27.54.28-37.94-10.4-10.4-27.39-10.28-37.94.28"/><path id="Path_238-15" class="cls-2" d="M622.6,958.46h0c-10.55,10.55-10.68,27.54-.28,37.94,10.4,10.4,27.39,10.28,37.94-.28,10.55-10.55,10.68-27.54.28-37.94-10.4-10.4-27.39-10.28-37.94.28"/><path id="Path_215-16" class="cls-2" d="M696.02,1177.73h0c-10.55,10.55-10.68,27.54-.28,37.94,10.4,10.4,27.39,10.28,37.94-.28,10.55-10.55,10.68-27.54.28-37.94-10.4-10.4-27.39-10.28-37.94.28"/><path id="Path_227-16" class="cls-2" d="M622.85,1104.56h0c-10.55,10.55-10.68,27.54-.28,37.94s27.39,10.28,37.94-.28c10.55-10.55,10.68-27.54.28-37.94-10.4-10.4-27.39-10.28-37.94.28"/><path id="Path_238-16" class="cls-2" d="M549.67,1031.38h0c-10.55,10.55-10.68,27.54-.28,37.94,10.4,10.4,27.39,10.28,37.94-.28,10.55-10.55,10.68-27.54.28-37.94-10.4-10.4-27.39-10.28-37.94.28"/><path id="Path_284-2" class="cls-2" d="M694.95,8h0c-10.55,10.55-10.68,27.54-.28,37.94,10.4,10.4,27.39,10.28,37.94-.28,10.55-10.55,10.68-27.54.28-37.94-10.4-10.4-27.39-10.28-37.94.28"/></g></g></svg>