<?xml version="1.0" encoding="UTF-8"?><svg id="Layer_2" xmlns="http://www.w3.org/2000/svg" xmlns:xlink="http://www.w3.org/1999/xlink" viewBox="0 0 2083.51 1249.42"><defs><style>.cls-1{fill:none;}.cls-2{fill:#1c2140;}.cls-3{fill:#ed308b;}.cls-4{clip-path:url(#clippath);}</style><clipPath id="clippath"><rect class="cls-1" x="163.51" y="86.38" width="1920" height="1080"/></clipPath></defs><g id="Layer_1-2"><g class="cls-4"><path id="Path_216" class="cls-2" d="M755.93,606.02h0c-10.78,10.78-10.91,28.13-.29,38.75,10.62,10.62,27.97,10.49,38.75-.29,10.78-10.78,10.91-28.13.29-38.75-10.62-10.62-27.97-10.49-38.75.29"/><path id="Path_228" class="cls-2" d="M681.2,531.29h0c-10.78,10.78-10.91,28.13-.29,38.75,10.62,10.62,27.97,10.49,38.75-.29,10.78-10.78,10.91-28.13.29-38.75-10.62-10.62-27.97-10.49-38.75.29"/><path id="Path_239" class="cls-2" d="M606.47,456.56h0c-10.78,10.78-10.91,28.13-.29,38.75,10.62,10.62,27.97,10.49,38.75-.29s10.91-28.13.29-38.75c-10.62-10.62-27.97-10.49-38.75.29"/><path id="Path_249" class="cls-2" d="M531.74,381.83h0c-10.78,10.78-10.91,28.13-.29,38.75,10.62,10.62,27.97,10.49,38.75-.29,10.78-10.78,10.91-28.13.29-38.75-10.62-10.62-27.97-10.49-38.75.29"/><path id="Path_258" class="cls-2" d="M457.01,307.1h0c-10.78,10.78-10.91,28.13-.29,38.75,10.62,10.62,27.97,10.49,38.75-.29,10.78-10.78,10.91-28.13.29-38.75-10.62-10.62-27.97-10.49-38.75.29"/><path id="Path_266" class="cls-2" d="M382.27,232.36h0c-10.78,10.78-10.91,28.13-.29,38.75,10.62,10.62,27.97,10.49,38.75-.29,10.78-10.78,10.91-28.13.29-38.75-10.62-10.62-27.97-10.49-38.75.29"/><path id="Path_273" class="cls-2" d="M307.54,157.64h0c-10.78,10.78-10.91,28.13-.29,38.75,10.62,10.62,27.97,10.49,38.75-.29,10.78-10.78,10.91-28.13.29-38.75-10.62-10.62-27.97-10.49-38.75.29"/><path id="Path_279" class="cls-2" d="M232.81,82.9h0c-10.78,10.78-10.91,28.13-.29,38.75,10.62,10.62,27.97,10.49,38.75-.29,10.78-10.78,10.91-28.13.29-38.75-10.62-10.62-27.97-10.49-38.75.29"/><path id="Path_215" class="cls-2" d="M680.5,681.45h0c-10.78,10.78-10.91,28.13-.29,38.75,10.62,10.62,27.97,10.49,38.75-.29,10.78-10.78,10.91-28.13.29-38.75-10.62-10.62-27.97-10.49-38.75.29"/><path id="Path_227" class="cls-3" d="M605.77,606.72h0c-10.78,10.78-10.91,28.13-.29,38.75s27.97,10.49,38.75-.29c10.78-10.78,10.91-28.13.29-38.75s-27.97-10.49-38.75.29"/><path id="Path_238" class="cls-3" d="M531.04,531.99h0c-10.78,10.78-10.91,28.13-.29,38.75,10.62,10.62,27.97,10.49,38.75-.29,10.78-10.78,10.91-28.13.29-38.75-10.62-10.62-27.97-10.49-38.75.29"/><path id="Path_248" class="cls-2" d="M456.31,457.26h0c-10.78,10.78-10.91,28.13-.29,38.75,10.62,10.62,27.97,10.49,38.75-.29,10.78-10.78,10.91-28.13.29-38.75-10.62-10.62-27.97-10.49-38.75.29"/><path id="Path_257" class="cls-2" d="M381.58,382.53h0c-10.78,10.78-10.91,28.13-.29,38.75,10.62,10.62,27.97,10.49,38.75-.29,10.78-10.78,10.91-28.13.29-38.75-10.62-10.62-27.97-10.49-38.75.29"/><path id="Path_265" class="cls-2" d="M306.84,307.79h0c-10.78,10.78-10.91,28.13-.29,38.75,10.62,10.62,27.97,10.49,38.75-.29,10.78-10.78,10.91-28.13.29-38.75-10.62-10.62-27.97-10.49-38.75.29"/><path id="Path_272" class="cls-2" d="M232.11,233.07h0c-10.78,10.78-10.91,28.13-.29,38.75s27.97,10.49,38.75-.29c10.78-10.78,10.91-28.13.29-38.75-10.62-10.62-27.97-10.49-38.75.29"/><path id="Path_278" class="cls-2" d="M157.38,158.33h0c-10.78,10.78-10.91,28.13-.29,38.75,10.62,10.62,27.97,10.49,38.75-.29,10.78-10.78,10.91-28.13.29-38.75-10.62-10.62-27.97-10.49-38.75.29"/><path id="Path_283" class="cls-2" d="M82.65,83.6h0c-10.78,10.78-10.91,28.13-.29,38.75s27.97,10.49,38.75-.29c10.78-10.78,10.91-28.13.29-38.75-10.62-10.62-27.97-10.49-38.75.29"/><path id="Path_215-2" class="cls-2" d="M606.02,755.93h0c-10.78,10.78-10.91,28.13-.29,38.75,10.62,10.62,27.97,10.49,38.75-.29,10.78-10.78,10.91-28.13.29-38.75s-27.97-10.49-38.75.29"/><path id="Path_227-2" class="cls-3" d="M531.29,681.2h0c-10.78,10.78-10.91,28.13-.29,38.75,10.62,10.62,27.97,10.49,38.75-.29,10.78-10.78,10.91-28.13.29-38.75-10.62-10.62-27.97-10.49-38.75.29"/><path id="Path_238-2" class="cls-3" d="M456.56,606.47h0c-10.78,10.78-10.91,28.13-.29,38.75,10.62,10.62,27.97,10.49,38.75-.29,10.78-10.78,10.91-28.13.29-38.75-10.62-10.62-27.97-10.49-38.75.29"/><path id="Path_248-2" class="cls-2" d="M381.83,531.74h0c-10.78,10.78-10.91,28.13-.29,38.75,10.62,10.62,27.97,10.49,38.75-.29,10.78-10.78,10.91-28.13.29-38.75-10.62-10.62-27.97-10.49-38.75.29"/><path id="Path_257-2" class="cls-2" d="M307.1,457.01h0c-10.78,10.78-10.91,28.13-.29,38.75,10.62,10.62,27.97,10.49,38.75-.29,10.78-10.78,10.91-28.13.29-38.75-10.62-10.62-27.97-10.49-38.75.29"/><path id="Path_265-2" class="cls-2" d="M232.36,382.27h0c-10.78,10.78-10.91,28.13-.29,38.75,10.62,10.62,27.97,10.49,38.75-.29,10.78-10.78,10.91-28.13.29-38.75-10.62-10.62-27.97-10.49-38.75.29"/><path id="Path_272-2" class="cls-2" d="M157.64,307.54h0c-10.78,10.78-10.91,28.13-.29,38.75,10.62,10.62,27.97,10.49,38.75-.29,10.78-10.78,10.91-28.13.29-38.75-10.62-10.62-27.97-10.49-38.75.29"/><path id="Path_278-2" class="cls-2" d="M82.9,232.81h0c-10.78,10.78-10.91,28.13-.29,38.75,10.62,10.62,27.97,10.49,38.75-.29,10.78-10.78,10.91-28.13.29-38.75-10.62-10.62-27.97-10.49-38.75.29"/><path id="Path_283-2" class="cls-2" d="M8.17,158.08h0c-10.78,10.78-10.91,28.13-.29,38.75,10.62,10.62,27.97,10.49,38.75-.29,10.78-10.78,10.91-28.13.29-38.75-10.62-10.62-27.97-10.49-38.75.29"/><path id="Path_215-3" class="cls-2" d="M531.55,830.41h0c-10.78,10.78-10.91,28.13-.29,38.75,10.62,10.62,27.97,10.49,38.75-.29,10.78-10.78,10.91-28.13.29-38.75-10.62-10.62-27.97-10.49-38.75.29"/><path id="Path_227-3" class="cls-2" d="M456.82,755.68h0c-10.78,10.78-10.91,28.13-.29,38.75,10.62,10.62,27.97,10.49,38.75-.29,10.78-10.78,10.91-28.13.29-38.75-10.62-10.62-27.97-10.49-38.75.29"/><path id="Path_238-3" class="cls-2" d="M382.09,680.94h0c-10.78,10.78-10.91,28.13-.29,38.75,10.62,10.62,27.97,10.49,38.75-.29,10.78-10.78,10.91-28.13.29-38.75-10.62-10.62-27.97-10.49-38.75.29"/><path id="Path_215-4" class="cls-2" d="M457.07,904.88h0c-10.78,10.78-10.91,28.13-.29,38.75,10.62,10.62,27.97,10.49,38.75-.29,10.78-10.78,10.91-28.13.29-38.75-10.62-10.62-27.97-10.49-38.75.29"/><path id="Path_227-4" class="cls-2" d="M382.34,830.15h0c-10.78,10.78-10.91,28.13-.29,38.75,10.62,10.62,27.97,10.49,38.75-.29,10.78-10.78,10.91-28.13.29-38.75-10.62-10.62-27.97-10.49-38.75.29"/><path id="Path_238-4" class="cls-2" d="M307.61,755.42h0c-10.78,10.78-10.91,28.13-.29,38.75,10.62,10.62,27.97,10.49,38.75-.29,10.78-10.78,10.91-28.13.29-38.75-10.62-10.62-27.97-10.49-38.75.29"/><path id="Path_215-5" class="cls-2" d="M382.6,979.36h0c-10.78,10.78-10.91,28.13-.29,38.75,10.62,10.62,27.97,10.49,38.75-.29,10.78-10.78,10.91-28.13.29-38.75-10.62-10.62-27.97-10.49-38.75.29"/><path id="Path_227-5" class="cls-2" d="M307.86,904.63h0c-10.78,10.78-10.91,28.13-.29,38.75,10.62,10.62,27.97,10.49,38.75-.29,10.78-10.78,10.91-28.13.29-38.75-10.62-10.62-27.97-10.49-38.75.29"/><path id="Path_238-5" class="cls-2" d="M233.13,829.9h0c-10.78,10.78-10.91,28.13-.29,38.75,10.62,10.62,27.97,10.49,38.75-.29,10.78-10.78,10.91-28.13.29-38.75-10.62-10.62-27.97-10.49-38.75.29"/><path id="Path_215-6" class="cls-2" d="M308.12,1053.84h0c-10.78,10.78-10.91,28.13-.29,38.75,10.62,10.62,27.97,10.49,38.75-.29,10.78-10.78,10.91-28.13.29-38.75-10.62-10.62-27.97-10.49-38.75.29"/><path id="Path_227-6" class="cls-2" d="M233.39,979.11h0c-10.78,10.78-10.91,28.13-.29,38.75,10.62,10.62,27.97,10.49,38.75-.29,10.78-10.78,10.91-28.13.29-38.75-10.62-10.62-27.97-10.49-38.75.29"/><path id="Path_238-6" class="cls-2" d="M158.66,904.37h0c-10.78,10.78-10.91,28.13-.29,38.75,10.62,10.62,27.97,10.49,38.75-.29,10.78-10.78,10.91-28.13.29-38.75-10.62-10.62-27.97-10.49-38.75.29"/><path id="Path_215-7" class="cls-2" d="M233.64,1128.31h0c-10.78,10.78-10.91,28.13-.29,38.75,10.62,10.62,27.97,10.49,38.75-.29,10.78-10.78,10.91-28.13.29-38.75-10.62-10.62-27.97-10.49-38.75.29"/><path id="Path_227-7" class="cls-2" d="M158.91,1053.58h0c-10.78,10.78-10.91,28.13-.29,38.75,10.62,10.62,27.97,10.49,38.75-.29,10.78-10.78,10.91-28.13.29-38.75-10.62-10.62-27.97-10.49-38.75.29"/><path id="Path_238-7" class="cls-2" d="M84.18,978.85h0c-10.78,10.78-10.91,28.13-.29,38.75,10.62,10.62,27.97,10.49,38.75-.29,10.78-10.78,10.91-28.13.29-38.75-10.62-10.62-27.97-10.49-38.75.29"/><path id="Path_215-8" class="cls-2" d="M159.17,1202.79h0c-10.78,10.78-10.91,28.13-.29,38.75,10.62,10.62,27.97,10.49,38.75-.29,10.78-10.78,10.91-28.13.29-38.75-10.62-10.62-27.97-10.49-38.75.29"/><path id="Path_227-8" class="cls-2" d="M84.43,1128.06h0c-10.78,10.78-10.91,28.13-.29,38.75,10.62,10.62,27.97,10.49,38.75-.29,10.78-10.78,10.91-28.13.29-38.75-10.62-10.62-27.97-10.49-38.75.29"/><path id="Path_238-8" class="cls-2" d="M9.7,1053.33h0c-10.78,10.78-10.91,28.13-.29,38.75,10.62,10.62,27.97,10.49,38.75-.29,10.78-10.78,10.91-28.13.29-38.75-10.62-10.62-27.97-10.49-38.75.29"/><path id="Path_284" class="cls-2" d="M158.08,8.17h0c-10.78,10.78-10.91,28.13-.29,38.75,10.62,10.62,27.97,10.49,38.75-.29,10.78-10.78,10.91-28.13.29-38.75-10.62-10.62-27.97-10.49-38.75.29"/><path id="Path_216-2" class="cls-2" d="M1307.6,606.02h0c-10.78,10.78-10.91,28.13-.29,38.75,10.62,10.62,27.97,10.49,38.75-.29,10.78-10.78,10.91-28.13.29-38.75-10.62-10.62-27.97-10.49-38.75.29"/><path id="Path_228-2" class="cls-2" d="M1232.86,531.29h0c-10.78,10.78-10.91,28.13-.29,38.75,10.62,10.62,27.97,10.49,38.75-.29,10.78-10.78,10.91-28.13.29-38.75-10.62-10.62-27.97-10.49-38.75.29"/><path id="Path_239-2" class="cls-2" d="M1158.13,456.56h0c-10.78,10.78-10.91,28.13-.29,38.75,10.62,10.62,27.97,10.49,38.75-.29,10.78-10.78,10.91-28.13.29-38.75-10.62-10.62-27.97-10.49-38.75.29"/><path id="Path_249-2" class="cls-2" d="M1083.4,381.83h0c-10.78,10.78-10.91,28.13-.29,38.75,10.62,10.62,27.97,10.49,38.75-.29,10.78-10.78,10.91-28.13.29-38.75s-27.97-10.49-38.75.29"/><path id="Path_258-2" class="cls-2" d="M1008.67,307.1h0c-10.78,10.78-10.91,28.13-.29,38.75,10.62,10.62,27.97,10.49,38.75-.29,10.78-10.78,10.91-28.13.29-38.75-10.62-10.62-27.97-10.49-38.75.29"/><path id="Path_266-2" class="cls-2" d="M933.93,232.36h0c-10.78,10.78-10.91,28.13-.29,38.75,10.62,10.62,27.97,10.49,38.75-.29,10.78-10.78,10.91-28.13.29-38.75-10.62-10.62-27.97-10.49-38.75.29"/><path id="Path_273-2" class="cls-2" d="M859.21,157.64h0c-10.78,10.78-10.91,28.13-.29,38.75,10.62,10.62,27.97,10.49,38.75-.29,10.78-10.78,10.91-28.13.29-38.75-10.62-10.62-27.97-10.49-38.75.29"/><path id="Path_279-2" class="cls-2" d="M784.47,82.9h0c-10.78,10.78-10.91,28.13-.29,38.75,10.62,10.62,27.97,10.49,38.75-.29,10.78-10.78,10.91-28.13.29-38.75-10.62-10.62-27.97-10.49-38.75.29"/><path id="Path_215-9" class="cls-2" d="M1232.16,681.45h0c-10.78,10.78-10.91,28.13-.29,38.75,10.62,10.62,27.97,10.49,38.75-.29,10.78-10.78,10.91-28.13.29-38.75-10.62-10.62-27.97-10.49-38.75.29"/><path id="Path_227-9" class="cls-3" d="M1157.43,606.72h0c-10.78,10.78-10.91,28.13-.29,38.75s27.97,10.49,38.75-.29c10.78-10.78,10.91-28.13.29-38.75-10.62-10.62-27.97-10.49-38.75.29"/><path id="Path_238-9" class="cls-3" d="M1082.7,531.99h0c-10.78,10.78-10.91,28.13-.29,38.75,10.62,10.62,27.97,10.49,38.75-.29,10.78-10.78,10.91-28.13.29-38.75-10.62-10.62-27.97-10.49-38.75.29"/><path id="Path_248-3" class="cls-2" d="M1007.97,457.26h0c-10.78,10.78-10.91,28.13-.29,38.75,10.62,10.62,27.97,10.49,38.75-.29,10.78-10.78,10.91-28.13.29-38.75-10.62-10.62-27.97-10.49-38.75.29"/><path id="Path_257-3" class="cls-2" d="M933.24,382.53h0c-10.78,10.78-10.91,28.13-.29,38.75,10.62,10.62,27.97,10.49,38.75-.29,10.78-10.78,10.91-28.13.29-38.75-10.62-10.62-27.97-10.49-38.75.29"/><path id="Path_265-3" class="cls-2" d="M858.5,307.79h0c-10.78,10.78-10.91,28.13-.29,38.75,10.62,10.62,27.97,10.49,38.75-.29,10.78-10.78,10.91-28.13.29-38.75-10.62-10.62-27.97-10.49-38.75.29"/><path id="Path_272-3" class="cls-2" d="M783.78,233.07h0c-10.78,10.78-10.91,28.13-.29,38.75,10.62,10.62,27.97,10.49,38.75-.29,10.78-10.78,10.91-28.13.29-38.75-10.62-10.62-27.97-10.49-38.75.29"/><path id="Path_278-3" class="cls-2" d="M709.04,158.33h0c-10.78,10.78-10.91,28.13-.29,38.75,10.62,10.62,27.97,10.49,38.75-.29,10.78-10.78,10.91-28.13.29-38.75-10.62-10.62-27.97-10.49-38.75.29"/><path id="Path_283-3" class="cls-2" d="M634.31,83.6h0c-10.78,10.78-10.91,28.13-.29,38.75,10.62,10.62,27.97,10.49,38.75-.29,10.78-10.78,10.91-28.13.29-38.75-10.62-10.62-27.97-10.49-38.75.29"/><path id="Path_215-10" class="cls-2" d="M1157.69,755.93h0c-10.78,10.78-10.91,28.13-.29,38.75,10.62,10.62,27.97,10.49,38.75-.29,10.78-10.78,10.91-28.13.29-38.75-10.62-10.62-27.97-10.49-38.75.29"/><path id="Path_227-10" class="cls-3" d="M1082.96,681.2h0c-10.78,10.78-10.91,28.13-.29,38.75,10.62,10.62,27.97,10.49,38.75-.29,10.78-10.78,10.91-28.13.29-38.75-10.62-10.62-27.97-10.49-38.75.29"/><path id="Path_238-10" class="cls-3" d="M1008.23,606.47h0c-10.78,10.78-10.91,28.13-.29,38.75,10.62,10.62,27.97,10.49,38.75-.29,10.78-10.78,10.91-28.13.29-38.75-10.62-10.62-27.97-10.49-38.75.29"/><path id="Path_248-4" class="cls-2" d="M933.49,531.74h0c-10.78,10.78-10.91,28.13-.29,38.75,10.62,10.62,27.97,10.49,38.75-.29,10.78-10.78,10.91-28.13.29-38.75-10.62-10.62-27.97-10.49-38.75.29"/><path id="Path_257-4" class="cls-2" d="M858.76,457.01h0c-10.78,10.78-10.91,28.13-.29,38.75,10.62,10.62,27.97,10.49,38.75-.29,10.78-10.78,10.91-28.13.29-38.75-10.62-10.62-27.97-10.49-38.75.29"/><path id="Path_265-4" class="cls-2" d="M784.03,382.27h0c-10.78,10.78-10.91,28.13-.29,38.75,10.62,10.62,27.97,10.49,38.75-.29,10.78-10.78,10.91-28.13.29-38.75-10.62-10.62-27.97-10.49-38.75.29"/><path id="Path_272-4" class="cls-2" d="M709.3,307.54h0c-10.78,10.78-10.91,28.13-.29,38.75,10.62,10.62,27.97,10.49,38.75-.29,10.78-10.78,10.91-28.13.29-38.75-10.62-10.62-27.97-10.49-38.75.29"/><path id="Path_278-4" class="cls-2" d="M634.57,232.81h0c-10.78,10.78-10.91,28.13-.29,38.75,10.62,10.62,27.97,10.49,38.75-.29,10.78-10.78,10.91-28.13.29-38.75-10.62-10.62-27.97-10.49-38.75.29"/><path id="Path_283-4" class="cls-2" d="M559.83,158.08h0c-10.78,10.78-10.91,28.13-.29,38.75,10.62,10.62,27.97,10.49,38.75-.29,10.78-10.78,10.91-28.13.29-38.75-10.62-10.62-27.97-10.49-38.75.29"/><path id="Path_215-11" class="cls-2" d="M1083.21,830.41h0c-10.78,10.78-10.91,28.13-.29,38.75,10.62,10.62,27.97,10.49,38.75-.29,10.78-10.78,10.91-28.13.29-38.75-10.62-10.62-27.97-10.49-38.75.29"/><path id="Path_227-11" class="cls-2" d="M1008.48,755.68h0c-10.78,10.78-10.91,28.13-.29,38.75,10.62,10.62,27.97,10.49,38.75-.29,10.78-10.78,10.91-28.13.29-38.75-10.62-10.62-27.97-10.49-38.75.29"/><path id="Path_238-11" class="cls-2" d="M933.75,680.94h0c-10.78,10.78-10.91,28.13-.29,38.75,10.62,10.62,27.97,10.49,38.75-.29,10.78-10.78,10.91-28.13.29-38.75-10.62-10.62-27.97-10.49-38.75.29"/><path id="Path_215-12" class="cls-2" d="M1008.74,904.88h0c-10.78,10.78-10.91,28.13-.29,38.75,10.62,10.62,27.97,10.49,38.75-.29,10.78-10.78,10.91-28.13.29-38.75-10.62-10.62-27.97-10.49-38.75.29"/><path id="Path_227-12" class="cls-2" d="M934,830.15h0c-10.78,10.78-10.91,28.13-.29,38.75,10.62,10.62,27.97,10.49,38.75-.29,10.78-10.78,10.91-28.13.29-38.75-10.62-10.62-27.97-10.49-38.75.29"/><path id="Path_238-12" class="cls-2" d="M859.27,755.42h0c-10.78,10.78-10.91,28.13-.29,38.75,10.62,10.62,27.97,10.49,38.75-.29,10.78-10.78,10.91-28.13.29-38.75-10.62-10.62-27.97-10.49-38.75.29"/><path id="Path_215-13" class="cls-2" d="M934.26,979.36h0c-10.78,10.78-10.91,28.13-.29,38.75,10.62,10.62,27.97,10.49,38.75-.29,10.78-10.78,10.91-28.13.29-38.75-10.62-10.62-27.97-10.49-38.75.29"/><path id="Path_227-13" class="cls-2" d="M859.53,904.63h0c-10.78,10.78-10.91,28.13-.29,38.75,10.62,10.62,27.97,10.49,38.75-.29,10.78-10.78,10.91-28.13.29-38.75-10.62-10.62-27.97-10.49-38.75.29"/><path id="Path_238-13" class="cls-2" d="M784.8,829.9h0c-10.78,10.78-10.91,28.13-.29,38.75,10.62,10.62,27.97,10.49,38.75-.29,10.78-10.78,10.91-28.13.29-38.75-10.62-10.62-27.97-10.49-38.75.29"/><path id="Path_215-14" class="cls-2" d="M859.78,1053.84h0c-10.78,10.78-10.91,28.13-.29,38.75,10.62,10.62,27.97,10.49,38.75-.29,10.78-10.78,10.91-28.13.29-38.75-10.62-10.62-27.97-10.49-38.75.29"/><path id="Path_227-14" class="cls-2" d="M785.05,979.11h0c-10.78,10.78-10.91,28.13-.29,38.75,10.62,10.62,27.97,10.49,38.75-.29,10.78-10.78,10.91-28.13.29-38.75-10.62-10.62-27.97-10.49-38.75.29"/><path id="Path_238-14" class="cls-2" d="M710.32,904.37h0c-10.78,10.78-10.91,28.13-.29,38.75,10.62,10.62,27.97,10.49,38.75-.29,10.78-10.78,10.91-28.13.29-38.75-10.62-10.62-27.97-10.49-38.75.29"/><path id="Path_215-15" class="cls-2" d="M785.31,1128.31h0c-10.78,10.78-10.91,28.13-.29,38.75,10.62,10.62,27.97,10.49,38.75-.29,10.78-10.78,10.91-28.13.29-38.75-10.62-10.62-27.97-10.49-38.75.29"/><path id="Path_227-15" class="cls-2" d="M710.58,1053.58h0c-10.78,10.78-10.91,28.13-.29,38.75,10.62,10.62,27.97,10.49,38.75-.29,10.78-10.78,10.91-28.13.29-38.75-10.62-10.62-27.97-10.49-38.75.29"/><path id="Path_238-15" class="cls-2" d="M635.84,978.85h0c-10.78,10.78-10.91,28.13-.29,38.75,10.62,10.62,27.97,10.49,38.75-.29,10.78-10.78,10.91-28.13.29-38.75-10.62-10.62-27.97-10.49-38.75.29"/><path id="Path_215-16" class="cls-2" d="M710.83,1202.79h0c-10.78,10.78-10.91,28.13-.29,38.75,10.62,10.62,27.97,10.49,38.75-.29,10.78-10.78,10.91-28.13.29-38.75-10.62-10.62-27.97-10.49-38.75.29"/><path id="Path_227-16" class="cls-2" d="M636.1,1128.06h0c-10.78,10.78-10.91,28.13-.29,38.75,10.62,10.62,27.97,10.49,38.75-.29,10.78-10.78,10.91-28.13.29-38.75-10.62-10.62-27.97-10.49-38.75.29"/><path id="Path_238-16" class="cls-2" d="M561.37,1053.33h0c-10.78,10.78-10.91,28.13-.29,38.75,10.62,10.62,27.97,10.49,38.75-.29,10.78-10.78,10.91-28.13.29-38.75-10.62-10.62-27.97-10.49-38.75.29"/><path id="Path_284-2" class="cls-2" d="M709.74,8.17h0c-10.78,10.78-10.91,28.13-.29,38.75,10.62,10.62,27.97,10.49,38.75-.29,10.78-10.78,10.91-28.13.29-38.75-10.62-10.62-27.97-10.49-38.75.29"/></g></g></svg>