<?xml version="1.0" encoding="UTF-8"?><svg id="Layer_2" xmlns="http://www.w3.org/2000/svg" viewBox="0 0 905.17 891.92"><defs><style>.cls-1{fill:#2b3c79;}</style></defs><g id="Layer_1-2"><path id="Path_216" class="cls-1" d="M833.65,35.76h0c0,19.75,16.01,35.76,35.76,35.76,19.75,0,35.76-16.01,35.76-35.76C905.17,16.01,889.16,0,869.41,0c-19.75,0-35.76,16.01-35.76,35.76"/><path id="Path_228" class="cls-1" d="M694.71,35.76h0c0,19.75,16.01,35.76,35.76,35.76,19.75,0,35.76-16.01,35.76-35.76S750.22,0,730.47,0c-19.75,0-35.76,16.01-35.76,35.76"/><path id="Path_239" class="cls-1" d="M555.77,35.76h0c0,19.75,16.01,35.76,35.76,35.76,19.75,0,35.76-16.01,35.76-35.76C627.28,16.01,611.27,0,591.53,0c-19.75,0-35.76,16.01-35.76,35.76"/><path id="Path_249" class="cls-1" d="M416.83,35.76h0c0,19.75,16.01,35.76,35.76,35.76,19.75,0,35.76-16.01,35.76-35.76S472.33,0,452.58,0c-19.75,0-35.76,16.01-35.76,35.76"/><path id="Path_258" class="cls-1" d="M277.88,35.76h0c0,19.75,16.01,35.76,35.76,35.76,19.75,0,35.76-16.01,35.76-35.76C349.4,16.01,333.39,0,313.64,0c-19.75,0-35.76,16.01-35.76,35.76"/><path id="Path_266" class="cls-1" d="M138.93,35.76h0c0,19.75,16.01,35.76,35.76,35.76,19.75,0,35.76-16.01,35.76-35.76,0-19.75-16.01-35.76-35.76-35.76-19.75,0-35.76,16.01-35.76,35.76"/><path id="Path_215" class="cls-1" d="M833.65,173.95h0c0,19.75,16.01,35.76,35.76,35.76,19.75,0,35.76-16.01,35.76-35.76,0-19.75-16.01-35.76-35.76-35.76-19.75,0-35.76,16.01-35.76,35.76"/><path id="Path_227" class="cls-1" d="M694.71,173.95h0c0,19.75,16.01,35.76,35.76,35.76,19.75,0,35.76-16.01,35.76-35.76,0-19.75-16.01-35.76-35.76-35.76-19.75,0-35.76,16.01-35.76,35.76"/><path id="Path_238" class="cls-1" d="M555.77,173.95h0c0,19.75,16.01,35.76,35.76,35.76,19.75,0,35.76-16.01,35.76-35.76,0-19.75-16.01-35.76-35.76-35.76-19.75,0-35.76,16.01-35.76,35.76"/><path id="Path_248" class="cls-1" d="M412.85,173.95h0c0,21.94,17.79,39.73,39.73,39.73,21.94,0,39.73-17.79,39.73-39.73,0-21.94-17.79-39.73-39.73-39.73-21.94,0-39.73,17.79-39.73,39.73"/><path id="Path_257" class="cls-1" d="M277.88,173.95h0c0,19.75,16.01,35.76,35.76,35.76,19.75,0,35.76-16.01,35.76-35.76,0-19.75-16.01-35.76-35.76-35.76-19.75,0-35.76,16.01-35.76,35.76"/><path id="Path_265" class="cls-1" d="M138.93,173.95h0c0,19.75,16.01,35.76,35.76,35.76,19.75,0,35.76-16.01,35.76-35.76s-16.01-35.76-35.76-35.76c-19.75,0-35.76,16.01-35.76,35.76"/><path id="Path_215-2" class="cls-1" d="M833.65,310.39h0c0,19.75,16.01,35.76,35.76,35.76,19.75,0,35.76-16.01,35.76-35.76,0-19.75-16.01-35.76-35.76-35.76-19.75,0-35.76,16.01-35.76,35.76"/><path id="Path_227-2" class="cls-1" d="M694.71,310.39h0c0,19.75,16.01,35.76,35.76,35.76,19.75,0,35.76-16.01,35.76-35.76,0-19.75-16.01-35.76-35.76-35.76-19.75,0-35.76,16.01-35.76,35.76"/><path id="Path_238-2" class="cls-1" d="M555.77,310.39h0c0,19.75,16.01,35.76,35.76,35.76,19.75,0,35.76-16.01,35.76-35.76,0-19.75-16.01-35.76-35.76-35.76-19.75,0-35.76,16.01-35.76,35.76"/><path id="Path_248-2" class="cls-1" d="M416.83,310.39h0c0,19.75,16.01,35.76,35.76,35.76,19.75,0,35.76-16.01,35.76-35.76,0-19.75-16.01-35.76-35.76-35.76-19.75,0-35.76,16.01-35.76,35.76"/><path id="Path_215-3" class="cls-1" d="M833.65,446.84h0c0,19.75,16.01,35.76,35.76,35.76,19.75,0,35.76-16.01,35.76-35.76,0-19.75-16.01-35.76-35.76-35.76-19.75,0-35.76,16.01-35.76,35.76"/><path id="Path_227-3" class="cls-1" d="M694.71,446.84h0c0,19.75,16.01,35.76,35.76,35.76,19.75,0,35.76-16.01,35.76-35.76,0-19.75-16.01-35.76-35.76-35.76-19.75,0-35.76,16.01-35.76,35.76"/><path id="Path_238-3" class="cls-1" d="M555.77,446.84h0c0,19.75,16.01,35.76,35.76,35.76,19.75,0,35.76-16.01,35.76-35.76,0-19.75-16.01-35.76-35.76-35.76-19.75,0-35.76,16.01-35.76,35.76"/><path id="Path_248-3" class="cls-1" d="M416.83,446.84h0c0,19.75,16.01,35.76,35.76,35.76,19.75,0,35.76-16.01,35.76-35.76,0-19.75-16.01-35.76-35.76-35.76-19.75,0-35.76,16.01-35.76,35.76"/><path id="Path_257-2" class="cls-1" d="M277.88,446.84h0c0,19.75,16.01,35.76,35.76,35.76,19.75,0,35.76-16.01,35.76-35.76,0-19.75-16.01-35.76-35.76-35.76s-35.76,16.01-35.76,35.76"/><path id="Path_215-4" class="cls-1" d="M833.65,583.28h0c0,19.75,16.01,35.76,35.76,35.76,19.75,0,35.76-16.01,35.76-35.76,0-19.75-16.01-35.76-35.76-35.76-19.75,0-35.76,16.01-35.76,35.76"/><path id="Path_227-4" class="cls-1" d="M693.92,583.28h0c0,20.19,16.36,36.55,36.55,36.55,20.19,0,36.55-16.36,36.55-36.55,0-20.19-16.36-36.55-36.55-36.55-20.19,0-36.55,16.36-36.55,36.55"/><path id="Path_248-4" class="cls-1" d="M416.83,583.28h0c0,19.75,16.01,35.76,35.76,35.76,19.75,0,35.76-16.01,35.76-35.76s-16.01-35.76-35.76-35.76c-19.75,0-35.76,16.01-35.76,35.76"/><path id="Path_257-3" class="cls-1" d="M277.88,583.28h0c0,19.75,16.01,35.76,35.76,35.76,19.75,0,35.76-16.01,35.76-35.76,0-19.75-16.01-35.76-35.76-35.76-19.75,0-35.76,16.01-35.76,35.76"/><path id="Path_265-2" class="cls-1" d="M138.93,583.28h0c0,19.75,16.01,35.76,35.76,35.76,19.75,0,35.76-16.01,35.76-35.76,0-19.75-16.01-35.76-35.76-35.76-19.75,0-35.76,16.01-35.76,35.76"/><path id="Path_215-5" class="cls-1" d="M833.65,719.72h0c0,19.75,16.01,35.76,35.76,35.76,19.75,0,35.76-16.01,35.76-35.76,0-19.75-16.01-35.76-35.76-35.76-19.75,0-35.76,16.01-35.76,35.76"/><path id="Path_227-5" class="cls-1" d="M694.71,719.72h0c0,19.75,16.01,35.76,35.76,35.76,19.75,0,35.76-16.01,35.76-35.76,0-19.75-16.01-35.76-35.76-35.76-19.75,0-35.76,16.01-35.76,35.76"/><path id="Path_257-4" class="cls-1" d="M277.88,719.72h0c0,19.75,16.01,35.76,35.76,35.76,19.75,0,35.76-16.01,35.76-35.76,0-19.75-16.01-35.76-35.76-35.76-19.75,0-35.76,16.01-35.76,35.76"/><path id="Path_265-3" class="cls-1" d="M138.93,719.72h0c0,19.75,16.01,35.76,35.76,35.76,19.75,0,35.76-16.01,35.76-35.76,0-19.75-16.01-35.76-35.76-35.76-19.75,0-35.76,16.01-35.76,35.76"/><path id="Path_272" class="cls-1" d="M0,719.72H0c0,19.75,16.01,35.76,35.76,35.76,19.75,0,35.76-16.01,35.76-35.76,0-19.75-16.01-35.76-35.76-35.76C16.01,683.97,0,699.97,0,719.72"/><path id="Path_265-4" class="cls-1" d="M138.93,856.17h0c0,19.75,16.01,35.76,35.76,35.76,19.75,0,35.76-16.01,35.76-35.76,0-19.75-16.01-35.76-35.76-35.76-19.75,0-35.76,16.01-35.76,35.76"/><path id="Path_272-2" class="cls-1" d="M0,856.17h0c0,19.75,16.01,35.76,35.76,35.76,19.75,0,35.76-16.01,35.76-35.76,0-19.75-16.01-35.76-35.76-35.76-19.75,0-35.76,16.01-35.76,35.76"/></g></svg>