<?xml version="1.0" encoding="UTF-8"?><svg id="Layer_1" xmlns="http://www.w3.org/2000/svg" viewBox="0 0 687.56 175.42"><defs><style>.cls-1{fill:none;}.cls-2{fill:#fff;}</style></defs><rect class="cls-1" x="276.11" y="-236.29" width="134.47" height="648" transform="translate(431.06 -255.64) rotate(90)"/><polygon class="cls-2" points="44.21 128.32 44.21 45.85 58.71 45.85 58.71 115.57 95.19 115.57 95.19 128.32 44.21 128.32"/><path class="cls-2" d="M145.17,128.32v-8c-4.25,4.75-11.74,9.49-21.24,9.49-12.75,0-19.24-6.74-19.24-18.99v-42.48h12.99v37.74c0,9.25,4.75,12.24,12,12.24,6.5,0,12.24-3.75,15.24-7.75v-42.23h12.99v59.72h-12.74v.25h0Z"/><path class="cls-2" d="M169.92,98.33c0-18,12.74-31.24,30.99-31.24,11.74,0,18.74,4.99,22.99,10.75l-8.49,8c-3.25-4.75-8-7-13.75-7-11,0-17.99,8.25-17.99,19.74s7.25,19.99,17.99,19.99c5.75,0,10.5-2.5,13.75-7l8.49,8c-4.25,5.74-11.25,10.75-22.99,10.75-18.25-.5-30.99-13.75-30.99-31.99"/><path class="cls-2" d="M231.14,53.1c0-4.5,3.75-8,8-8,4.5,0,8,3.5,8,8s-3.5,8-8,8-8-3.5-8-8M232.64,128.32v-59.98h12.99v59.72h-12.99v.25Z"/><path class="cls-2" d="M303.12,128.32v-8.25c-4.5,6-11.5,9.75-19.24,9.75-15.24,0-26.49-11.74-26.49-31.24s11.25-31.49,26.49-31.49c7.5,0,14.25,3.5,19.24,9.74v-31.24h12.99v82.46h-12.99v.26ZM303.12,110.33v-23.74c-3-4.5-9.24-8-15.49-8-10.25,0-16.74,8.24-16.74,19.99s6.5,19.74,16.74,19.74c5.99-.25,12.49-3.5,15.49-8"/><polygon class="cls-2" points="383.83 128.32 369.84 84.33 356.09 128.06 342.6 128.06 324.1 68.34 337.6 68.34 350.09 111.82 364.34 68.34 375.84 68.34 390.08 111.82 402.83 68.34 416.32 68.34 397.83 128.06 383.83 128.06 383.83 128.32 383.83 128.32"/><path class="cls-2" d="M419.06,98.33c0-16.99,11.75-31.24,30.74-31.24s30.74,14.25,30.74,31.24-11.74,31.49-30.74,31.49-30.74-14.24-30.74-31.49M467.05,98.33c0-10.5-6.24-19.74-17.24-19.74s-17.25,9.25-17.25,19.74,6.25,19.99,17.25,19.99c11-.25,17.24-9.5,17.24-19.99"/><path class="cls-2" d="M492.04,128.32v-59.98h12.99v8.74c4.5-5.75,11.74-10.25,19.49-10.25v12.74c-1-.25-2.5-.25-4-.25-5.5,0-12.75,3.75-15.24,8v40.73h-13.25v.25Z"/><polygon class="cls-2" points="572.76 128.32 554.52 103.57 546.27 112.07 546.27 128.06 533.27 128.06 533.27 45.6 546.27 45.6 546.27 97.08 572.51 68.34 588.5 68.34 563.51 95.33 589 128.06 572.76 128.06 572.76 128.32"/><path class="cls-2" d="M592.25,120.32l6-9.5c4.25,4.25,12.49,8.49,20.24,8.49s11.74-3.25,11.74-8c0-11.74-36.24-3.25-36.24-26.24,0-9.75,8.5-18.24,23.49-18.24,10.25,0,17.75,3.5,23.24,8.49l-5.5,9.25c-3.5-4-10.25-7.25-17.75-7.25-6.75,0-11.25,3-11.25,7.25,0,10.75,36.24,2.75,36.24,26.49,0,10.49-8.74,18.49-24.99,18.49-9.74.25-18.99-3-25.24-9.24"/></svg>