<svg width="699" height="598" viewBox="0 0 699 598" fill="none" xmlns="http://www.w3.org/2000/svg" id="dots">
    <mask id="mask0_610_17408" style="mask-type:alpha" maskUnits="userSpaceOnUse" x="0" y="0" width="699" height="598">
      <rect width="698.831" height="598" fill="#D9D9D9"></rect>
    </mask>
    <g mask="url(#mask0_610_17408)">
      <g clip-path="url(#clip0_610_17408)">
        <path d="M55.7826 566.174C63.4831 565.831 69.4469 559.296 69.1032 551.577C68.7594 543.859 62.2383 537.88 54.5378 538.223C46.8372 538.566 40.8734 545.101 41.2171 552.819C41.5609 560.538 48.082 566.517 55.7826 566.174Z" fill="white" style="translate: none; rotate: none; scale: none; transform-origin: 0px 0px 0px; opacity: 1;" data-svg-origin="41.20295715332031 538.208984375" transform="matrix(1,0,0,1,0,0)"></path>
        <path d="M71.4779 477.599C72.3164 469.919 66.7842 463.014 59.1216 462.178C51.459 461.341 44.5675 466.889 43.7291 474.57C42.8906 482.25 48.4227 489.155 56.0854 489.991C63.748 490.828 70.6395 485.28 71.4779 477.599Z" fill="white" style="translate: none; rotate: none; scale: none; transform-origin: 0px 0px 0px; opacity: 1;" data-svg-origin="43.645076751708984 462.094482421875" transform="matrix(1,0,0,1,0,0)"></path>
        <path d="M85.1215 404.87C87.1224 397.407 82.709 389.739 75.2639 387.743C67.8187 385.747 60.1611 390.178 58.1602 397.64C56.1592 405.103 60.5726 412.771 68.0178 414.767C75.4629 416.763 83.1205 412.332 85.1215 404.87Z" fill="white" style="translate: none; rotate: none; scale: none; transform-origin: 0px 0px 0px; opacity: 1;" data-svg-origin="57.6783332824707 387.2645263671875" transform="matrix(1,0,0,1,0,0)"></path>
        <path d="M109.703 335.061C112.819 327.991 109.628 319.74 102.575 316.63C95.5215 313.521 87.2773 316.731 84.1607 323.801C81.0441 330.871 84.2353 339.122 91.2885 342.232C98.3417 345.341 106.586 342.131 109.703 335.061Z" fill="white" style="translate: none; rotate: none; scale: none; transform-origin: 0px 0px 0px; opacity: 1;" data-svg-origin="82.96598052978516 315.4432373046875" transform="matrix(1,0,0,1,0,0)"></path>
        <path d="M144.661 269.827C148.82 263.316 146.926 254.674 140.43 250.525C133.934 246.375 125.296 248.29 121.137 254.801C116.978 261.312 118.872 269.954 125.368 274.103C131.864 278.253 140.502 276.338 144.661 269.827Z" fill="white" style="translate: none; rotate: none; scale: none; transform-origin: 0px 0px 0px; opacity: 1;" data-svg-origin="118.93096923828125 248.3324432373047" transform="matrix(1,0,0,1,0,0)"></path>
        <path d="M189.158 210.69C194.262 204.89 193.709 196.06 187.922 190.967C182.136 185.875 173.307 186.449 168.203 192.248C163.099 198.048 163.652 206.878 169.438 211.971C175.225 217.063 184.053 216.49 189.158 210.69Z" fill="white" style="translate: none; rotate: none; scale: none; transform-origin: 0px 0px 0px; opacity: 1;" data-svg-origin="164.70925903320312 187.49378967285156" transform="matrix(1,0,0,1,0,0)"></path>
        <path d="M242.152 159.042C248.082 154.089 248.883 145.278 243.942 139.362C239.001 133.446 230.188 132.665 224.258 137.618C218.329 142.571 217.527 151.382 222.468 157.298C227.41 163.214 236.223 163.995 242.152 159.042Z" fill="white" style="translate: none; rotate: none; scale: none; transform-origin: 0px 0px 0px; opacity: 1;" data-svg-origin="219.2289276123047 134.3592529296875" transform="matrix(1,0,0,1,0,0)"></path>
        <path d="M302.423 116.083C309.04 112.093 311.176 103.508 307.196 96.9067C303.216 90.3057 294.625 88.1889 288.009 92.1785C281.393 96.1681 279.256 104.753 283.236 111.354C287.217 117.955 295.807 120.072 302.423 116.083Z" fill="white" style="translate: none; rotate: none; scale: none; transform-origin: 0px 0px 0px; opacity: 1;" data-svg-origin="281.2333984375 90.1629638671875" transform="matrix(1,0,0,1,0,0)"></path>
        <path d="M368.542 82.8339C375.689 79.9009 379.112 71.7424 376.186 64.6112C373.259 57.4801 365.093 54.0768 357.945 57.0097C350.797 59.9427 347.375 68.1013 350.301 75.2324C353.227 82.3635 361.394 85.7669 368.542 82.8339Z" fill="white" style="translate: none; rotate: none; scale: none; transform-origin: 0px 0px 0px; opacity: 1;" data-svg-origin="349.2548522949219 55.95661926269531" transform="matrix(1,0,0,1,0,0)"></path>
        <path d="M438.96 60.0576C446.471 58.25 451.099 50.7094 449.296 43.2152C447.492 35.721 439.941 31.111 432.429 32.9185C424.918 34.7261 420.29 42.2667 422.093 49.7609C423.897 57.2552 431.448 61.8651 438.96 60.0576Z" fill="white" style="translate: none; rotate: none; scale: none; transform-origin: 0px 0px 0px; opacity: 1;" data-svg-origin="421.7034912109375 32.52619552612305" transform="matrix(1,0,0,1,0,0)"></path>
        <path d="M601.012 34.9436C601.555 27.2546 595.747 20.5801 588.04 20.0358C580.333 19.4915 573.645 25.2834 573.102 32.9724C572.559 40.6614 578.367 47.3358 586.074 47.8801C593.781 48.4244 600.468 42.6326 601.012 34.9436Z" fill="white" style="translate: none; rotate: none; scale: none; transform-origin: 0px 0px 0px; opacity: 1;" data-svg-origin="573.0668334960938 20.00037384033203" transform="matrix(1,0,0,1,0,0)"></path>
        <path d="M676.025 48.2282C677.736 40.7122 673.015 33.2295 665.482 31.5151C657.948 29.8008 650.455 34.504 648.744 42.02C647.034 49.536 651.755 57.0186 659.288 58.733C666.822 60.4473 674.315 55.7442 676.025 48.2282Z" fill="white" style="translate: none; rotate: none; scale: none; transform-origin: 0px 0px 0px; opacity: 1;" data-svg-origin="648.3939819335938 31.162534713745117" transform="matrix(1,0,0,1,0,0)"></path>
        <path d="M159.447 671.743C180.319 666.357 192.864 645.035 187.466 624.119C182.069 603.204 160.773 590.615 139.901 596.001C119.029 601.387 106.484 622.709 111.881 643.625C117.279 664.54 138.575 677.129 159.447 671.743Z" fill="white" style="translate: none; rotate: none; scale: none; transform-origin: 0px 0px 0px; opacity: 1;" data-svg-origin="110.6285400390625 594.7560424804688" transform="matrix(1,0,0,1,0,0)"></path>
        <path d="M137.724 580.83C159.271 580.224 176.247 562.23 175.64 540.637C175.033 519.045 157.073 502.032 135.526 502.638C113.978 503.243 97.0027 521.238 97.6096 542.831C98.2165 564.423 116.176 581.436 137.724 580.83Z" fill="white" style="translate: none; rotate: none; scale: none; transform-origin: 0px 0px 0px; opacity: 1;" data-svg-origin="97.59382629394531 502.6221923828125" transform="matrix(1,0,0,1,0,0)"></path>
        <path d="M182.723 456.642C186.937 435.457 173.214 414.873 152.072 410.668C130.931 406.462 110.376 420.228 106.162 441.413C101.947 462.599 115.67 483.183 136.812 487.388C157.954 491.593 178.509 477.828 182.723 456.642Z" fill="white" style="translate: none; rotate: none; scale: none; transform-origin: 0px 0px 0px; opacity: 1;" data-svg-origin="105.40117645263672 409.9118957519531" transform="matrix(1,0,0,1,0,0)"></path>
        <path d="M208.317 376.328C217.14 356.612 208.343 333.49 188.668 324.685C168.992 315.88 145.889 324.725 137.066 344.441C128.242 364.157 137.039 387.279 156.714 396.084C176.39 404.89 199.493 396.044 208.317 376.328Z" fill="white" style="translate: none; rotate: none; scale: none; transform-origin: 0px 0px 0px; opacity: 1;" data-svg-origin="133.63766479492188 321.27703857421875" transform="matrix(1,0,0,1,0,0)"></path>
        <path d="M251.167 303.655C264.154 286.395 260.72 261.896 243.495 248.935C226.271 235.975 201.779 239.46 188.792 256.72C175.804 273.98 179.239 298.479 196.463 311.44C213.687 324.401 238.179 320.915 251.167 303.655Z" fill="white" style="translate: none; rotate: none; scale: none; transform-origin: 0px 0px 0px; opacity: 1;" data-svg-origin="180.9172821044922 241.10311889648438" transform="matrix(1,0,0,1,0,0)"></path>
        <path d="M379.193 195.575C398.384 185.661 405.922 162.099 396.029 142.947C386.135 123.796 362.558 116.307 343.366 126.221C324.175 136.135 316.637 159.697 326.531 178.849C336.424 198 360.002 205.489 379.193 195.575Z" fill="white" style="translate: none; rotate: none; scale: none; transform-origin: 0px 0px 0px; opacity: 1;" data-svg-origin="322.1769104003906 121.84217834472656" transform="matrix(1,0,0,1,0,0)"></path>
        <path d="M457.967 165.46C478.883 160.063 491.472 138.767 486.085 117.895C480.699 97.0228 459.377 84.4781 438.462 89.8755C417.546 95.2729 404.957 116.569 410.343 137.441C415.73 158.313 437.052 170.858 457.967 165.46Z" fill="white" style="translate: none; rotate: none; scale: none; transform-origin: 0px 0px 0px; opacity: 1;" data-svg-origin="409.0980224609375 88.62288665771484" transform="matrix(1,0,0,1,0,0)"></path>
        <path d="M541.453 153.689C563.046 153.082 580.059 135.123 579.453 113.575C578.847 92.0277 560.852 75.052 539.26 75.6589C517.668 76.2658 500.655 94.2255 501.261 115.773C501.866 137.32 519.861 154.296 541.453 153.689Z" fill="white" style="translate: none; rotate: none; scale: none; transform-origin: 0px 0px 0px; opacity: 1;" data-svg-origin="501.245361328125 75.64311981201172" transform="matrix(1,0,0,1,0,0)"></path>
        <path d="M671.465 130.132C675.67 108.991 661.905 88.4357 640.719 84.2216C619.533 80.0075 598.95 93.7301 594.744 114.872C590.539 136.014 604.304 156.569 625.49 160.783C646.676 164.997 667.259 151.274 671.465 130.132Z" fill="white" style="translate: none; rotate: none; scale: none; transform-origin: 0px 0px 0px; opacity: 1;" data-svg-origin="593.9882202148438 83.46105194091797" transform="matrix(1,0,0,1,0,0)"></path>
        <path d="M757.486 166.765C766.292 147.09 757.447 123.987 737.73 115.163C718.014 106.339 694.892 115.136 686.087 134.812C677.282 154.487 686.127 177.591 705.843 186.414C725.56 195.238 748.681 186.441 757.486 166.765Z" fill="white" style="translate: none; rotate: none; scale: none; transform-origin: 0px 0px 0px; opacity: 1;" data-svg-origin="682.6790161132812 111.73467254638672" transform="matrix(1,0,0,1,0,0)"></path>
        <path d="M272.148 653.789C291.271 647.928 302.012 627.643 296.14 608.482C290.267 589.32 270.004 578.538 250.881 584.399C231.758 590.26 221.017 610.545 226.89 629.707C232.762 648.868 253.025 659.65 272.148 653.789Z" fill="white" style="translate: none; rotate: none; scale: none; transform-origin: 0px 0px 0px; opacity: 1;" data-svg-origin="225.28419494628906 582.8026123046875" transform="matrix(1,0,0,1,0,0)"></path>
        <path d="M284.398 525.564C284.734 505.525 268.795 489.009 248.797 488.674C228.799 488.339 212.315 504.312 211.979 524.35C211.643 544.388 227.583 560.904 247.581 561.24C267.579 561.575 284.063 545.602 284.398 525.564Z" fill="white" style="translate: none; rotate: none; scale: none; transform-origin: 0px 0px 0px; opacity: 1;" data-svg-origin="211.97378540039062 488.6688232421875" transform="matrix(1,0,0,1,0,0)"></path>
        <path d="M338.168 369.123C350.218 353.109 347.031 330.378 331.049 318.353C315.067 306.327 292.343 309.56 280.293 325.574C268.243 341.588 271.43 364.319 287.412 376.345C303.394 388.37 326.118 385.137 338.168 369.123Z" fill="white" style="translate: none; rotate: none; scale: none; transform-origin: 0px 0px 0px; opacity: 1;" data-svg-origin="272.9871520996094 311.0850830078125" transform="matrix(1,0,0,1,0,0)"></path>
        <path d="M398.363 310.916C414.772 299.41 418.765 276.807 407.281 260.431C395.798 244.055 373.187 240.108 356.778 251.615C340.369 263.121 336.376 285.724 347.86 302.1C359.343 318.476 381.954 322.423 398.363 310.916Z" fill="white" style="translate: none; rotate: none; scale: none; transform-origin: 0px 0px 0px; opacity: 1;" data-svg-origin="341.3034973144531 245.0236358642578" transform="matrix(1,0,0,1,0,0)"></path>
        <path d="M473.609 274.151C492.77 268.278 503.552 248.015 497.691 228.893C491.83 209.77 471.546 199.029 452.384 204.901C433.223 210.774 422.441 231.037 428.302 250.16C434.163 269.283 454.448 280.024 473.609 274.151Z" fill="white" style="translate: none; rotate: none; scale: none; transform-origin: 0px 0px 0px; opacity: 1;" data-svg-origin="426.70562744140625 203.29566955566406" transform="matrix(1,0,0,1,0,0)"></path>
        <path d="M593.389 226.858C593.724 206.86 577.751 190.376 557.713 190.04C537.675 189.704 521.159 205.644 520.824 225.642C520.488 245.64 536.461 262.124 556.5 262.46C576.538 262.795 593.054 246.856 593.389 226.858Z" fill="white" style="translate: none; rotate: none; scale: none; transform-origin: 0px 0px 0px; opacity: 1;" data-svg-origin="520.8187866210938 190.03477478027344" transform="matrix(1,0,0,1,0,0)"></path>
        <path d="M685.052 254.483C691.55 235.567 681.453 214.954 662.499 208.443C643.546 201.931 622.912 211.987 616.414 230.902C609.915 249.818 620.013 270.431 638.966 276.943C657.92 283.454 678.554 273.398 685.052 254.483Z" fill="white" style="translate: none; rotate: none; scale: none; transform-origin: 0px 0px 0px; opacity: 1;" data-svg-origin="614.44287109375 206.46041870117188" transform="matrix(1,0,0,1,0,0)"></path>
        <path d="M763.7 309.078C775.726 293.096 772.492 270.372 756.478 258.322C740.464 246.272 717.734 249.459 705.708 265.441C693.682 281.423 696.915 304.147 712.929 316.197C728.944 328.247 751.674 325.06 763.7 309.078Z" fill="white" style="translate: none; rotate: none; scale: none; transform-origin: 0px 0px 0px; opacity: 1;" data-svg-origin="698.4400634765625 251.0161590576172" transform="matrix(1,0,0,1,0,0)"></path>
        <path d="M740.508 667.899C753.315 650.878 749.926 626.718 732.938 613.935C715.95 601.152 691.796 604.588 678.989 621.608C666.182 638.628 669.571 662.788 686.559 675.571C703.547 688.354 727.701 684.919 740.508 667.899Z" fill="white" style="translate: none; rotate: none; scale: none; transform-origin: 0px 0px 0px; opacity: 1;" data-svg-origin="671.2249755859375 606.2092895507812" transform="matrix(1,0,0,1,0,0)"></path>
        <path d="M375.722 613.754C396.308 608.441 408.681 587.415 403.359 566.79C398.036 546.166 377.033 533.752 356.448 539.065C335.862 544.377 323.488 565.403 328.811 586.028C334.133 606.653 355.136 619.066 375.722 613.754Z" fill="white" style="translate: none; rotate: none; scale: none; transform-origin: 0px 0px 0px; opacity: 1;" data-svg-origin="327.5758056640625 537.8366088867188" transform="matrix(1,0,0,1,0,0)"></path>
        <path d="M401.384 497.443C405.54 476.552 392.005 456.254 371.153 452.106C350.302 447.959 330.029 461.532 325.874 482.423C321.718 503.314 335.253 523.612 356.105 527.76C376.957 531.908 397.229 518.334 401.384 497.443Z" fill="white" style="translate: none; rotate: none; scale: none; transform-origin: 0px 0px 0px; opacity: 1;" data-svg-origin="325.1239929199219 451.3605041503906" transform="matrix(1,0,0,1,0,0)"></path>
        <path d="M429.728 434.043C442.535 417.023 439.146 392.863 422.158 380.08C405.17 367.297 381.016 370.732 368.209 387.752C355.402 404.773 358.791 428.933 375.779 441.716C392.767 454.498 416.921 451.063 429.728 434.043Z" fill="white" style="translate: none; rotate: none; scale: none; transform-origin: 0px 0px 0px; opacity: 1;" data-svg-origin="360.4449768066406 372.3539123535156" transform="matrix(1,0,0,1,0,0)"></path>
        <path d="M482.76 389.31C501.685 379.534 509.116 356.297 499.359 337.408C489.601 318.519 466.35 311.132 447.425 320.908C428.501 330.684 421.069 353.922 430.827 372.81C440.584 391.699 463.836 399.086 482.76 389.31Z" fill="white" style="translate: none; rotate: none; scale: none; transform-origin: 0px 0px 0px; opacity: 1;" data-svg-origin="426.53216552734375 316.59075927734375" transform="matrix(1,0,0,1,0,0)"></path>
        <path d="M669.027 366.146C677.712 346.74 668.991 323.956 649.548 315.255C630.106 306.554 607.305 315.231 598.62 334.637C589.936 354.042 598.657 376.827 618.099 385.528C637.541 394.229 660.343 385.551 669.027 366.146Z" fill="white" style="translate: none; rotate: none; scale: none; transform-origin: 0px 0px 0px; opacity: 1;" data-svg-origin="595.2583618164062 311.875" transform="matrix(1,0,0,1,0,0)"></path>
        <path d="M727.837 431.851C744.08 418.134 746.107 393.822 732.364 377.547C718.621 361.273 694.312 359.2 678.069 372.917C661.826 386.634 659.799 410.947 673.542 427.221C687.285 443.495 711.593 445.568 727.837 431.851Z" fill="white" style="translate: none; rotate: none; scale: none; transform-origin: 0px 0px 0px; opacity: 1;" data-svg-origin="664.4266967773438 363.84521484375" transform="matrix(1,0,0,1,0,0)"></path>
        <path d="M752.336 516.562C772.922 511.25 785.295 490.224 779.973 469.599C774.65 448.974 753.648 436.561 733.062 441.873C712.476 447.186 700.103 468.212 705.425 488.837C710.748 509.462 731.75 521.875 752.336 516.562Z" fill="white" style="translate: none; rotate: none; scale: none; transform-origin: 0px 0px 0px; opacity: 1;" data-svg-origin="704.1901245117188 440.6449279785156" transform="matrix(1,0,0,1,0,0)"></path>
      </g>
      <path d="M512.033 48.3771C519.733 47.7386 525.458 40.9938 524.821 33.312C524.184 25.6302 517.426 19.9204 509.727 20.5588C502.027 21.1973 496.302 27.9422 496.938 35.624C497.575 43.3057 504.334 49.0155 512.033 48.3771Z" fill="#A4C6F7" style="translate: none; rotate: none; scale: none; transform-origin: 0px 0px 0px; opacity: 1;" data-svg-origin="496.8897705078125 20.51007652282715" transform="matrix(1,0,0,1,0,0)"></path>
      <path d="M298.896 443.077C305.407 424.123 295.352 403.49 276.436 396.992C257.52 390.493 236.907 400.59 230.396 419.544C223.884 438.498 233.94 459.131 252.855 465.63C271.771 472.128 292.384 462.031 298.896 443.077Z" fill="#A4C6F7" style="translate: none; rotate: none; scale: none; transform-origin: 0px 0px 0px; opacity: 1;" data-svg-origin="228.41342163085938 395.0207824707031" transform="matrix(1,0,0,1,0,0)"></path>
      <path d="M549.991 371.931C571.283 371.332 588.06 353.619 587.462 332.367C586.865 311.115 569.12 294.373 547.828 294.971C526.536 295.57 509.76 313.283 510.357 334.534C510.954 355.786 528.699 372.529 549.991 371.931Z" fill="#A4C6F7" style="translate: none; rotate: none; scale: none; transform-origin: 0px 0px 0px; opacity: 1;" data-svg-origin="510.341552734375 294.9554748535156" transform="matrix(1,0,0,1,0,0)"></path>
      <path d="M309.087 242.398C325.591 228.461 327.695 203.813 313.787 187.343C299.879 170.874 275.226 168.821 258.723 182.758C242.22 196.694 240.115 221.343 254.023 237.812C267.931 254.282 292.584 256.335 309.087 242.398Z" fill="#A4C6F7" style="translate: none; rotate: none; scale: none; transform-origin: 0px 0px 0px; opacity: 1;" data-svg-origin="244.82640075683594 173.5126495361328" transform="matrix(1,0,0,1,0,0)"></path>
    </g>
    <defs>
      <clipPath id="clip0_610_17408">
        <rect width="1021.88" height="1021.38" fill="white" transform="translate(41.2002 20)"></rect>
      </clipPath>
    </defs>
  </svg>